<svg width="288" height="288" viewBox="0 0 288 288" fill="none" xmlns="http://www.w3.org/2000/svg">
<path d="M150.174 100.111L113.35 156.219C113.143 156.533 112.797 156.722 112.422 156.722H84.7533C84.3632 156.722 84.0009 156.513 83.7979 156.175L69.4798 131.926C69.2728 131.572 69.2728 131.13 69.4798 130.776L83.7979 106.527C83.997 106.189 84.3592 105.98 84.7533 105.98H112.263C112.657 105.98 113.023 106.193 113.222 106.535L123.691 124.609C124.444 125.908 126.267 126 127.147 124.786L129.746 121.184C130.403 120.275 130.446 119.053 129.857 118.101L117.828 98.5307C117.625 98.201 117.267 98 116.885 98H79.6939C79.2959 98 78.9297 98.2131 78.7307 98.5588L60.1493 131.029C59.9502 131.375 59.9502 131.805 60.1493 132.151L78.7307 164.621C78.9297 164.967 79.2959 165.18 79.6939 165.18H116.789C117.163 165.18 117.51 164.991 117.713 164.677L159.011 101.779C160.074 100.159 158.924 98 157.001 98H154.063C152.503 98 151.038 98.792 150.174 100.111Z" fill="white"/>
<path d="M87.1548 113.453L77.3467 130.792C77.068 131.286 77.072 131.893 77.3586 132.38L87.1588 149.188L82.0995 131.829C82.0557 131.672 82.0517 131.507 82.0995 131.351L87.1548 113.453Z" fill="white"/>
<path d="M136.825 163.069L173.649 106.961C173.856 106.647 174.202 106.458 174.576 106.458H202.246C202.636 106.458 202.998 106.667 203.201 107.005L217.519 131.254C217.726 131.608 217.726 132.05 217.519 132.404L203.201 156.653C203.002 156.991 202.64 157.2 202.246 157.2H174.736C174.342 157.2 173.975 156.987 173.776 156.645L163.307 138.571C162.555 137.272 160.732 137.18 159.852 138.394L157.253 141.996C156.596 142.905 156.552 144.127 157.141 145.079L169.171 164.649C169.374 164.979 169.732 165.18 170.114 165.18H207.305C207.703 165.18 208.069 164.967 208.268 164.621L226.85 132.151C227.049 131.805 227.049 131.375 226.85 131.029L208.264 98.5588C208.065 98.2131 207.699 98 207.301 98H170.206C169.832 98 169.485 98.1889 169.278 98.5025L127.984 161.401C126.921 163.021 128.071 165.18 129.994 165.18H132.932C134.496 165.18 135.957 164.388 136.825 163.069Z" fill="white"/>
<path d="M199.832 149.722L209.64 132.384C209.919 131.889 209.915 131.282 209.628 130.796L199.828 113.988L204.887 131.347C204.931 131.503 204.935 131.668 204.887 131.825L199.832 149.722Z" fill="white"/>
<path d="M70.9602 189.598H70.5184C69.8576 189.598 69.3242 189.059 69.3242 188.392V181.69C69.3242 181.023 69.8576 180.484 70.5184 180.484H70.9602C71.621 180.484 72.1544 181.023 72.1544 181.69V188.392C72.1544 189.059 71.621 189.598 70.9602 189.598Z" fill="white"/>
<path d="M71.1672 179.801H70.3114C69.7661 179.801 69.3242 179.354 69.3242 178.804V178.06C69.3242 177.509 69.7661 177.063 70.3114 177.063H71.1672C71.7126 177.063 72.1544 177.509 72.1544 178.06V178.804C72.1544 179.354 71.7126 179.801 71.1672 179.801Z" fill="white"/>
<path d="M119.55 189.598H119.108C118.447 189.598 117.914 189.059 117.914 188.392V181.69C117.914 181.023 118.447 180.484 119.108 180.484H119.55C120.211 180.484 120.744 181.023 120.744 181.69V188.392C120.744 189.059 120.211 189.598 119.55 189.598Z" fill="white"/>
<path d="M119.757 179.801H118.901C118.356 179.801 117.914 179.354 117.914 178.804V178.06C117.914 177.509 118.356 177.063 118.901 177.063H119.757C120.302 177.063 120.744 177.509 120.744 178.06V178.804C120.744 179.354 120.302 179.801 119.757 179.801Z" fill="white"/>
<path d="M86.3177 177.417C83.8338 177.417 82.4485 178.828 81.943 179.475C81.8037 179.656 81.7002 179.857 81.6365 180.078L79.1964 188.488C79.0849 188.87 79.3675 189.252 79.7616 189.252H81.8952C82.1539 189.252 82.3848 189.079 82.4605 188.826L83.0058 186.993C83.0814 186.739 83.3083 186.566 83.571 186.566H88.3358C88.6622 186.566 88.9249 186.832 88.9249 187.161V188.649C88.9249 188.979 89.1877 189.244 89.5141 189.244H91.3849C91.7114 189.244 91.9741 188.979 91.9741 188.649V178.004C91.9741 177.674 91.7114 177.409 91.3849 177.409H86.3177V177.417ZM88.5468 184.267H84.4587C84.0607 184.267 83.7741 183.877 83.8975 183.491L84.6896 180.971C84.7055 180.914 84.7294 180.866 84.7612 180.818C84.9205 180.585 85.4658 179.905 86.3933 179.905H88.5468C88.8732 179.905 89.1359 180.171 89.1359 180.5V183.672C89.1359 184.002 88.8692 184.267 88.5468 184.267Z" fill="white"/>
<path d="M94.5625 179.275V188.433C94.5625 188.887 94.9287 189.253 95.3746 189.253H96.5767C97.0265 189.253 97.3887 188.883 97.3887 188.433V184.228C97.3887 183.347 98.5749 183.082 98.9411 183.882L101.178 188.778C101.31 189.068 101.6 189.257 101.919 189.257H102.496C102.83 189.257 103.129 189.052 103.252 188.734L104.9 184.513C105.23 183.669 106.472 183.906 106.472 184.815V188.433C106.472 188.887 106.839 189.253 107.284 189.253H108.893C109.342 189.253 109.705 188.883 109.705 188.433V179.275C109.705 178.25 108.881 177.418 107.866 177.418H106.015C105.227 177.418 104.526 177.924 104.275 178.676L102.623 183.58C102.456 184.075 101.767 184.091 101.58 183.601L99.6696 178.604C99.3949 177.888 98.7143 177.414 97.954 177.414H96.3936C95.3825 177.418 94.5625 178.25 94.5625 179.275Z" fill="white"/>
<path d="M122.805 188.713V178.39C122.805 177.658 123.394 177.063 124.118 177.063H126.128C126.59 177.063 127.02 177.308 127.255 177.71L131.375 184.669C131.59 185.031 132.135 184.878 132.135 184.456V177.779C132.135 177.385 132.454 177.063 132.844 177.063H134.348C134.738 177.063 135.057 177.385 135.057 177.779V188.404C135.057 189.067 134.528 189.602 133.871 189.602H131.291C130.881 189.602 130.503 189.389 130.284 189.039L126.483 182.892C126.264 182.538 125.726 182.695 125.726 183.113V189.606H123.684C123.199 189.598 122.805 189.2 122.805 188.713Z" fill="white"/>
<path d="M137.434 188.713V178.39C137.434 177.658 138.023 177.063 138.747 177.063H140.757C141.219 177.063 141.649 177.308 141.884 177.71L146.004 184.669C146.219 185.031 146.764 184.878 146.764 184.456V177.779C146.764 177.385 147.083 177.063 147.473 177.063H148.977C149.367 177.063 149.686 177.385 149.686 177.779V188.404C149.686 189.067 149.156 189.602 148.5 189.602H145.92C145.51 189.602 145.132 189.389 144.913 189.039L141.112 182.892C140.893 182.538 140.355 182.695 140.355 183.113V189.606H138.313C137.828 189.598 137.434 189.2 137.434 188.713Z" fill="white"/>
<path d="M176.39 180.01H165.806C165.312 180.01 164.914 179.608 164.914 179.109V178.41C164.914 177.911 165.312 177.509 165.806 177.509H176.39C176.884 177.509 177.282 177.911 177.282 178.41V179.109C177.282 179.604 176.88 180.01 176.39 180.01Z" fill="white"/>
<path d="M172.339 178.41V189.099C172.339 189.598 171.941 190 171.448 190H170.755C170.261 190 169.863 189.598 169.863 189.099V178.41C169.863 177.911 170.261 177.509 170.755 177.509H171.448C171.941 177.505 172.339 177.911 172.339 178.41Z" fill="white"/>
<path d="M188.968 180.01H179.431C178.937 180.01 178.539 179.608 178.539 179.109V178.41C178.539 177.911 178.937 177.509 179.431 177.509H188.968C189.462 177.509 189.86 177.911 189.86 178.41V179.109C189.86 179.604 189.462 180.01 188.968 180.01Z" fill="white"/>
<path d="M188.968 189.599H179.431C178.937 189.599 178.539 189.197 178.539 188.698V187.999C178.539 187.5 178.937 187.098 179.431 187.098H188.968C189.462 187.098 189.86 187.5 189.86 187.999V188.698C189.86 189.197 189.462 189.599 188.968 189.599Z" fill="white"/>
<path d="M181.015 183.351V187.922C181.015 188.42 180.617 188.822 180.123 188.822H179.431C178.937 188.822 178.539 188.42 178.539 187.922V183.351C178.539 182.852 178.937 182.45 179.431 182.45H180.123C180.617 182.45 181.015 182.852 181.015 183.351Z" fill="white"/>
<path d="M207.869 178.41V188.697C207.869 189.196 207.471 189.598 206.977 189.598H205.739C205.246 189.598 204.848 189.196 204.848 188.697V178.41C204.848 177.911 205.246 177.509 205.739 177.509H206.977C207.467 177.505 207.869 177.911 207.869 178.41Z" fill="white"/>
<path d="M216.881 178.41V188.697C216.881 189.196 216.483 189.598 215.989 189.598H214.751C214.257 189.598 213.859 189.196 213.859 188.697V178.41C213.859 177.911 214.257 177.509 214.751 177.509H215.989C216.483 177.505 216.881 177.911 216.881 178.41Z" fill="white"/>
<path d="M187.85 184.581H179.431C178.937 184.581 178.539 184.179 178.539 183.681V182.981C178.539 182.483 178.937 182.081 179.431 182.081H187.85C188.343 182.081 188.741 182.483 188.741 182.981V183.681C188.741 184.175 188.343 184.581 187.85 184.581Z" fill="white"/>
<path d="M214.857 184.581H206.439C205.945 184.581 205.547 184.179 205.547 183.681V182.981C205.547 182.483 205.945 182.081 206.439 182.081H214.857C215.351 182.081 215.749 182.483 215.749 182.981V183.681C215.749 184.175 215.351 184.581 214.857 184.581Z" fill="white"/>
<path d="M159.745 177.06H156.413C153.782 177.06 151.652 179.214 151.652 181.868V184.786C151.652 187.443 153.786 189.594 156.413 189.594H159.745C162.376 189.594 164.506 187.439 164.506 184.786V181.868C164.506 179.214 162.372 177.06 159.745 177.06ZM161.496 184.67C161.496 186.016 160.414 187.11 159.08 187.11H157.134C155.8 187.11 154.717 186.016 154.717 184.67V181.988C154.717 180.641 155.8 179.548 157.134 179.548H159.08C160.414 179.548 161.496 180.641 161.496 181.988V184.67Z" fill="white"/>
<path d="M200.203 184.681C200.195 186.024 199.117 187.109 197.787 187.109H195.841C194.507 187.109 193.424 186.016 193.424 184.669V181.988C193.424 180.641 194.507 179.547 195.841 179.547H197.787C199.081 179.547 200.136 180.577 200.199 181.871H203.213C203.213 179.214 201.079 177.063 198.452 177.063H195.12C192.489 177.063 190.359 179.218 190.359 181.871V184.79C190.359 187.447 192.493 189.598 195.12 189.598H198.452C201.083 189.598 203.213 187.443 203.213 184.79L200.203 184.858V184.681Z" fill="white"/>
</svg>
