<svg width="288" height="288" viewBox="0 0 288 288" fill="none" xmlns="http://www.w3.org/2000/svg">
<path d="M96.4728 142.612C96.1549 142.54 96.0754 143.85 95.9257 144.345C95.5797 145.469 95.5376 146.688 95.257 147.836C95.0466 148.688 94.7801 149.574 94.3359 150.312C92.5636 153.246 92.4046 153.841 92.9237 158.027C93.943 156.408 94.8222 155.218 95.4862 153.908C96.4728 151.96 97.2397 149.893 98.2404 147.95C98.6238 147.207 99.3019 146.374 100.027 146.117C100.99 145.774 102.21 145.717 103.15 146.041C103.515 146.164 103.478 147.679 103.501 148.565C103.52 149.203 103.342 149.85 103.473 150.603C104.665 148.717 105.848 146.826 107.064 144.955C107.448 144.364 107.826 143.545 108.383 143.345C109.524 142.945 110.871 142.521 111.97 142.793C113.405 143.14 112.863 144.636 112.708 145.712C112.227 149.065 111.684 152.413 111.189 155.765C111.104 156.332 111.114 156.913 111.464 157.723C111.904 157.265 112.493 156.88 112.755 156.332C113.835 154.103 114.827 151.822 115.832 149.56C116.43 148.212 116.884 146.783 117.614 145.517C119.26 142.659 123.445 141.164 126.353 144.888C126.723 144.774 127.139 144.598 127.569 144.517C129.393 144.164 131.043 145.783 130.814 147.65C130.524 150.012 130.164 152.365 130.005 154.737C129.935 155.78 130.295 156.851 130.459 157.913C130.646 157.937 130.828 157.956 131.015 157.98C131.366 157.489 131.838 157.046 132.053 156.499C132.989 154.136 133.793 151.717 134.761 149.369C135.523 147.526 136.225 145.583 137.361 143.988C139.315 141.254 142.36 141.207 144.833 143.435C145.558 144.088 146.517 144.559 147.452 144.859C149.004 145.359 149.561 146.288 149.421 147.926C149.163 150.974 149.042 154.032 149.079 157.127C151.23 154.127 153.381 151.198 153.334 147.255C153.316 145.579 154.232 144.64 155.588 144.707C157.192 144.788 158.216 146.05 158.053 147.703C157.791 150.365 157.501 153.022 157.323 155.689C157.272 156.461 157.562 157.256 157.777 158.527C158.473 157.837 158.927 157.561 159.138 157.151C160.667 154.127 161.985 151.036 162.097 147.545C162.172 145.15 163.164 143.874 164.936 143.669C166.741 143.464 167.615 144.312 167.358 146.14C167.035 148.426 166.624 150.698 166.601 153.089C167.12 151.951 167.573 150.779 168.167 149.684C168.943 148.245 169.888 146.964 171.726 146.883C173.484 146.807 174.003 147.46 173.783 149.203C173.563 150.965 173.47 152.751 173.4 154.527C173.376 155.137 173.596 155.756 173.704 156.37C173.863 156.446 174.022 156.522 174.176 156.603C174.919 155.756 175.841 155.013 176.374 154.046C177.426 152.136 178.23 150.084 179.198 148.126C179.717 147.074 180.241 145.974 180.984 145.098C183.411 142.231 186.474 142.331 189.097 145.288C189.677 145.15 190.285 144.874 190.884 144.888C192.698 144.921 193.764 146.393 193.526 148.274C193.222 150.693 192.918 153.113 192.754 155.541C192.693 156.427 193.025 157.342 193.231 158.57C193.867 158.056 194.307 157.88 194.433 157.575C195.476 154.998 196.682 152.465 197.383 149.788C197.903 147.817 197.706 145.655 197.879 143.588C197.973 142.483 197.683 141.869 196.472 141.959C196.079 141.988 195.588 141.954 195.298 141.74C194.914 141.454 194.442 140.95 194.461 140.554C194.475 140.202 195.069 139.826 195.471 139.559C195.686 139.416 196.046 139.426 196.327 139.464C197.739 139.654 198.244 139.092 198.314 137.606C198.417 135.473 199.67 134.573 201.419 135.054C202.672 135.397 203.285 136.182 203.182 137.535C203.14 138.049 203.177 138.568 203.177 139.168C203.177 139.168 207.891 139.259 208.148 139.311C208.41 139.364 209.63 140.688 207.835 141.721C206.609 142.426 206.03 142.126 204.631 141.935C202.85 141.697 202.476 142.593 202.424 144.183C202.298 148.165 201.999 152.141 201.849 156.122C201.816 157.018 202.102 157.923 202.242 158.823C202.457 158.88 202.667 158.937 202.883 158.994C203.556 157.813 204.285 156.665 204.884 155.451C206.137 152.913 207.517 150.422 207.358 147.398C207.283 145.974 208.414 144.917 209.607 144.969C211.08 145.036 212.277 146.35 212.123 147.817C211.903 149.888 211.533 151.946 211.402 154.017C211.314 155.441 211.515 156.884 211.585 158.323C211.795 158.38 212.001 158.437 212.211 158.489C212.618 157.994 213.184 157.561 213.409 156.994C214.344 154.632 215.139 152.208 216.06 149.841C216.593 148.474 217.112 147.05 217.921 145.86C220.231 142.459 224.776 142.416 227.301 145.66C229.873 148.96 229.77 154.57 227.077 157.799C224.383 161.032 220.105 161.094 217.304 157.942C216.995 157.594 216.696 157.242 216.687 157.237C215.111 158.799 213.759 160.623 211.982 161.742C210.481 162.69 208.634 161.075 207.129 157.965C206.329 159.075 205.613 160.18 204.79 161.19C203.692 162.537 202.284 163.552 200.516 162.961C198.81 162.39 198.132 160.813 197.823 159.085C197.753 158.694 197.585 158.318 197.449 157.889C193.142 162.69 192.633 162.813 189.083 159.799C188.606 160.604 188.167 161.413 187.667 162.18C185.646 165.266 181.718 165.299 179.895 162.099C178.95 160.447 178.469 158.518 177.739 156.608C176.163 158.199 174.826 160.999 171.908 159.623C169.065 158.284 169.579 155.27 169.009 152.546C168.681 153.222 168.265 153.87 168.05 154.584C167.643 155.946 167.307 157.337 167.031 158.732C166.68 160.499 165.778 161.366 164.234 161.175C162.617 160.975 161.864 160.047 162.069 158.361C162.102 158.084 162.041 157.799 162.004 157.161C160.61 159.299 159.736 161.837 156.954 161.537C154.237 161.247 153.526 158.87 152.937 156.513C151.543 158.199 150.23 159.704 149.023 161.294C148.663 161.775 148.574 162.485 148.415 163.104C147.583 166.404 146.849 169.728 143.678 171.724C141.597 173.033 139.456 173.386 137.16 172.543C135.504 171.938 134.363 170.781 134.05 168.985C133.718 167.062 134.293 165.266 135.916 164.314C138.006 163.09 140.325 162.266 142.547 161.261C143.01 161.051 143.463 160.823 143.954 160.585C142.032 160.689 140.176 161.223 138.628 160.747C137.113 160.28 135.907 158.77 134.639 157.78C133.587 158.789 132.47 160.342 130.969 161.166C129.126 162.18 127.705 160.699 126.325 159.237C124.974 161.951 123.562 164.89 119.914 163.928C116.585 163.052 116.159 159.761 115.243 156.741C114.438 157.799 113.784 158.694 113.092 159.556C112.114 160.78 110.716 161.418 109.365 160.804C108.476 160.399 107.527 159.208 107.368 158.242C107.036 156.222 107.181 154.117 107.19 152.051C107.195 151.303 107.373 150.555 107.476 149.808C107.335 149.75 107.191 149.693 107.05 149.636C105.933 151.879 104.81 154.122 103.693 156.365C103.431 156.894 103.286 157.599 102.865 157.904C102.051 158.494 101.079 158.856 100.172 159.313C99.863 158.485 99.4375 157.68 99.2692 156.818C99.0634 155.751 99.0681 154.641 98.9418 153.065C97.9271 155.675 97.1976 157.861 96.211 159.918C95.8416 160.685 94.9344 161.49 94.1441 161.666C92.6431 161.999 91.0439 161.956 89.4867 161.956C77.5065 161.975 65.5216 161.966 53.5414 161.966C51.222 161.966 50.9321 161.675 50.9087 159.304C50.8994 158.294 50.862 157.28 50.9181 156.27C51.0397 153.932 50.6983 151.884 49.3469 149.76C48.248 148.036 48.2013 145.617 47.6168 143.216L47.1211 140.059C47.3689 139.902 47.6121 139.745 47.8599 139.588C48.1311 138.045 48.3462 136.492 48.6923 134.968C48.9869 133.687 48.9728 132.225 50.5393 131.563C50.848 131.43 50.9461 130.515 50.9555 129.963C51.0022 127.224 51.0116 124.486 50.9742 121.748C50.9555 120.133 51.5307 119.395 53.2468 119.4C65.4608 119.448 77.6795 119.424 89.8935 119.433C91.9323 119.433 92.4841 119.952 92.5402 122.072C92.615 124.748 92.5309 127.429 92.6337 130.106C92.6571 130.72 93.0826 131.349 93.4193 131.911C93.9337 132.768 94.7801 133.501 95.0419 134.42C95.5096 136.059 95.6498 137.797 95.9912 139.873M84.7077 150.898C85.8814 150.774 87.3965 150.679 88.8928 150.45C90.7352 150.169 92.082 149.212 92.2877 147.183C92.5636 144.421 93.0359 141.635 92.8956 138.887C92.6945 134.978 92.0165 134.382 88.5468 133.52C80.055 131.406 71.4369 131.306 62.8048 132.077C60.0412 132.325 57.3197 133.115 54.6029 133.763C52.8306 134.187 51.6382 135.273 51.2594 137.225C50.6048 140.611 50.6936 143.95 51.5119 147.288C51.8907 148.831 52.7979 149.988 54.3036 150.127C57.2963 150.408 60.3124 150.508 63.3191 150.522C65.4515 150.531 66.9805 149.346 68.2524 147.603C70.2071 144.921 73.9713 144.94 75.8278 147.703C77.1418 149.655 78.7504 150.674 81.0416 150.703C82.1499 150.717 83.2534 150.817 84.7077 150.898ZM58.3765 129.234C58.4607 129.368 58.5448 129.501 58.629 129.634C68.8884 128.363 79.1291 127.996 89.5475 130.415C89.5475 128.544 89.5475 126.953 89.5475 125.362C89.5475 122.881 89.5475 122.876 87.1861 122.872C82.2247 122.867 77.2633 122.962 72.3067 122.848C68.0748 122.748 64.4368 124.329 61.0279 126.61C60.0131 127.291 59.2509 128.348 58.3765 129.234ZM82.5941 153.97C81.5467 153.855 80.8219 153.779 80.0971 153.698C77.6935 153.427 75.3742 153.17 74.1116 150.493C73.0174 148.179 71.825 148.16 70.2772 150.298C68.6219 152.579 66.4522 153.708 63.7026 153.727C61.4908 153.741 59.279 153.76 57.0672 153.736C54.009 153.698 53.9529 153.775 54.1586 156.884C54.2241 157.865 54.5842 158.275 55.5381 158.256C61.9537 158.137 68.374 158.17 74.7756 157.861C77.6515 157.718 80.2374 156.384 82.5941 153.97ZM188.831 151.665C188.705 151.612 188.578 151.555 188.452 151.503C188.316 150.565 188.307 149.579 187.999 148.703C187.732 147.941 187.119 146.712 186.685 146.722C185.862 146.741 184.73 147.293 184.3 147.993C182.093 151.546 181.901 155.508 182.663 159.518C182.803 160.247 183.57 161.294 184.15 161.371C184.763 161.447 185.862 160.68 186.109 160.028C187.147 157.289 187.947 154.46 188.831 151.665ZM119.311 155.251C119.456 156.546 119.839 158.046 120.176 159.289C120.363 159.975 121.036 160.918 121.593 160.999C122.168 161.085 123.136 160.423 123.482 159.818C125.512 156.265 126.349 152.427 125.446 148.355C125.273 147.569 124.501 146.345 124.006 146.345C123.216 146.345 121.995 147.026 121.715 147.731M144.894 150.303C144.44 148.488 144.235 146.941 143.66 145.55C143.084 144.155 142.046 144.112 141.046 145.198C138.913 147.522 137.95 154.117 139.446 156.894C139.764 157.484 140.559 158.204 141.092 158.17C141.742 158.132 142.692 157.494 142.916 156.884C143.725 154.694 144.286 152.403 144.894 150.303ZM225.202 151.836C224.814 150.203 224.584 148.426 223.958 146.807C223.415 145.402 221.896 145.412 221.307 146.807C219.974 149.955 219.946 153.184 221.54 156.256C222.246 157.623 223.612 157.561 224.201 156.122C224.72 154.846 224.851 153.398 225.202 151.836ZM143.328 163.685C140.933 164.342 138.815 165.037 138.025 167.481C137.814 168.133 138.207 168.985 138.324 169.747C139.068 169.619 139.993 169.728 140.522 169.314C142.201 168.009 143.075 166.166 143.328 163.685ZM59.1434 122.653C58.0632 122.653 56.6931 122.61 55.3324 122.686C55.0237 122.7 54.4953 123.1 54.4813 123.343C54.4018 124.862 54.4439 126.391 54.4439 127.915C54.3691 127.725 54.2943 127.529 54.2194 127.339C55.8561 125.781 57.488 124.224 59.1434 122.653ZM84.0578 158.042C89.2576 158.618 90.2209 157.751 88.8601 153.96C87.317 155.27 85.8113 156.546 84.0578 158.042Z" fill="white"/>
<path d="M242.741 157.142C245.331 155.375 246.173 152.927 247.365 150.717C247.679 150.136 248.291 149.717 248.763 149.222C248.95 149.993 249.535 150.979 249.259 151.498C247.898 154.094 246.542 156.751 244.751 159.037C242.946 161.342 239.921 160.599 238.995 157.756C238.513 156.284 238.532 154.646 238.27 152.646C237.812 153.437 237.405 153.908 237.241 154.46C236.755 156.108 236.236 157.766 235.974 159.456C235.703 161.185 234.604 161.618 233.239 161.514C231.873 161.409 231.092 160.661 231.134 159.037C231.233 155.065 231.083 151.084 231.251 147.112C231.289 146.207 232.018 145.007 232.78 144.545C233.529 144.093 234.833 144.136 235.68 144.488C236.129 144.679 236.353 146.017 236.274 146.793C236.054 148.965 235.624 151.117 235.624 153.379C236.091 152.351 236.507 151.289 237.04 150.293C237.835 148.808 238.761 147.412 240.646 147.26C242.352 147.122 242.946 147.86 242.764 149.584C242.572 151.413 242.497 153.251 242.432 155.089C242.409 155.651 242.591 156.213 242.741 157.142Z" fill="white"/>
<path d="M71.9002 118.338C65.9428 118.338 59.9854 118.357 54.0281 118.319C53.3033 118.314 52.4428 118.2 51.8957 117.791C51.4609 117.467 51.1008 116.514 51.2551 116.028C51.4094 115.552 52.2605 115.005 52.8029 115.005C65.0029 114.986 77.2029 115.028 89.4076 115.09C90.614 115.095 92.3722 114.652 92.419 116.571C92.4658 118.495 90.8011 118.348 89.4263 118.343C83.5858 118.329 77.7407 118.338 71.9002 118.338Z" fill="white"/>
<path d="M251.927 160.266C251.376 160.585 250.627 161.304 250.309 161.142C249.557 160.762 249.014 159.961 248.383 159.333C248.874 158.88 249.482 157.98 249.832 158.071C250.623 158.285 251.287 158.99 252.002 159.495C251.979 159.752 251.955 160.009 251.927 160.266Z" fill="white"/>
<path d="M87.822 142.04C87.7378 144.95 85.844 146.712 82.9168 146.602C80.3449 146.507 78.2173 144.188 78.2827 141.554C78.3482 138.802 80.4571 136.802 83.1926 136.897C86.0217 136.992 87.9109 139.087 87.822 142.04Z" fill="white"/>
<path d="M64.6488 141.383C64.6582 143.107 63.3722 144.436 61.7028 144.422C60.0194 144.407 58.6026 142.96 58.6213 141.264C58.64 139.545 59.9586 138.14 61.5392 138.164C63.1057 138.188 64.6394 139.774 64.6488 141.383Z" fill="white"/>
<path d="M156.235 141.421C158.493 141.421 160.322 140.07 160.322 138.402C160.322 136.735 158.493 135.383 156.235 135.383C153.978 135.383 152.148 136.735 152.148 138.402C152.148 140.07 153.978 141.421 156.235 141.421Z" fill="white"/>
<path d="M90.2609 137.878C90.7955 137.878 91.2289 137.437 91.2289 136.892C91.2289 136.348 90.7955 135.906 90.2609 135.906C89.7263 135.906 89.293 136.348 89.293 136.892C89.293 137.437 89.7263 137.878 90.2609 137.878Z" fill="white"/>
<path d="M54.0969 137.512C54.6315 137.512 55.0648 137.071 55.0648 136.526C55.0648 135.982 54.6315 135.541 54.0969 135.541C53.5623 135.541 53.1289 135.982 53.1289 136.526C53.1289 137.071 53.5623 137.512 54.0969 137.512Z" fill="white"/>
<path d="M54.6945 148.512C55.2291 148.512 55.6625 148.071 55.6625 147.526C55.6625 146.982 55.2291 146.541 54.6945 146.541C54.1599 146.541 53.7266 146.982 53.7266 147.526C53.7266 148.071 54.1599 148.512 54.6945 148.512Z" fill="white"/>
<path d="M89.2844 148.988C89.819 148.988 90.2523 148.547 90.2523 148.002C90.2523 147.458 89.819 147.017 89.2844 147.017C88.7498 147.017 88.3164 147.458 88.3164 148.002C88.3164 148.547 88.7498 148.988 89.2844 148.988Z" fill="white"/>
<path d="M95.4648 139.812C95.4648 139.812 97.8029 138.54 98.3219 137.535C98.841 136.53 100.141 136.106 101.909 137.059C103.676 138.011 108.249 137.64 108.249 137.64C108.249 137.64 107.16 139.173 105.392 138.964L107.314 139.388C107.314 139.388 105.963 140.445 104.663 140.183L105.285 140.502C105.285 140.502 103.779 140.874 103.049 140.821L103.882 141.297C103.882 141.297 102.53 141.669 101.857 141.617L102.53 142.145C102.53 142.145 101.025 142.25 100.814 142.145L101.488 142.888C101.488 142.888 99.6687 142.888 99.5658 142.359L99.9305 143.312C99.9305 143.312 98.2658 142.993 98.1629 142.464L98.6306 143.312C98.6306 143.312 97.1248 142.731 97.022 142.412C96.9191 142.093 97.0734 143.521 97.0734 143.521L95.9839 142.359L95.4648 139.812Z" fill="white"/>
<path d="M48.7845 139.812C48.7845 139.812 46.4464 138.54 45.9274 137.535C45.4083 136.53 44.1084 136.106 42.3408 137.059C40.5732 138.011 36 137.64 36 137.64C36 137.64 37.0895 139.173 38.8571 138.964L36.9352 139.388C36.9352 139.388 38.2866 140.445 39.5866 140.183L38.9647 140.502C38.9647 140.502 40.4704 140.874 41.1998 140.821L40.3675 141.297C40.3675 141.297 41.7189 141.669 42.3922 141.617L41.7189 142.145C41.7189 142.145 43.2246 142.25 43.435 142.145L42.7617 142.888C42.7617 142.888 44.5807 142.888 44.6836 142.359L44.3188 143.312C44.3188 143.312 45.9835 142.993 46.0864 142.464L45.6188 143.312C45.6188 143.312 47.1245 142.731 47.2274 142.412C47.3302 142.093 47.1759 143.521 47.1759 143.521L48.2655 142.359L48.7845 139.812Z" fill="white"/>
<path d="M212.918 143.455C215.108 143.455 216.884 142.144 216.884 140.526C216.884 138.908 215.108 137.597 212.918 137.597C210.728 137.597 208.953 138.908 208.953 140.526C208.953 142.144 210.728 143.455 212.918 143.455Z" fill="white"/>
</svg>
