<svg width="288" height="288" viewBox="0 0 288 288" fill="none" xmlns="http://www.w3.org/2000/svg">
<path d="M50.7697 128L48.3602 131.719L45.9508 128H27.0769L24 131.719V154.065L28.401 160H38.652L43.2972 152.93C46.6129 147.565 48.3602 148.602 48.3602 148.602C48.3602 148.602 50.1076 147.565 53.4233 152.93L58.0685 160H68.3195L72.7205 154.065V131.719L69.6436 128H50.7697ZM37.686 148.377C34.3541 148.377 31.657 145.651 31.657 142.283C31.657 138.915 34.3541 136.189 37.686 136.189C41.018 136.189 43.715 138.915 43.715 142.283C43.715 145.651 41.018 148.377 37.686 148.377ZM59.3112 148.377C55.9793 148.377 53.2822 145.651 53.2822 142.283C53.2822 138.915 55.9793 136.189 59.3112 136.189C62.6432 136.189 65.3402 138.915 65.3402 142.283C65.3402 145.651 62.6432 148.377 59.3112 148.377Z" fill="white"/>
<path d="M105.095 128H78.8086V134.522H105.095V128Z" fill="white"/>
<path d="M107.43 134.522H119.754V160H126.26V134.522H138.584V128H107.43V134.522Z" fill="white"/>
<path d="M264.002 128H232.848V134.522H245.172V160H251.678V134.522H264.002V128Z" fill="white"/>
<path d="M105.095 140.742H78.8086V147.263H105.095V140.742Z" fill="white"/>
<path d="M105.095 153.479H78.8086V160H105.095V153.479Z" fill="white"/>
<path d="M223.327 128H208.474C205.44 128 202.977 130.49 202.977 133.556V154.114C202.977 157.18 205.44 159.671 208.474 159.671H223.327C226.36 159.671 228.824 157.18 228.824 154.114V133.556C228.824 130.49 226.365 128 223.327 128ZM223.218 150.204C223.218 152.282 221.552 153.966 219.495 153.966H212.224C210.167 153.966 208.501 152.282 208.501 150.204V137.517C208.501 135.438 210.167 133.754 212.224 133.754H219.495C221.552 133.754 223.218 135.438 223.218 137.517V150.204Z" fill="white"/>
<path d="M191.566 128H175.65V141.817V145.859V150.533H180.675V146.265H190.362C192.359 146.265 193.981 147.9 193.981 149.924C193.981 151.942 192.364 153.582 190.362 153.582H184.289H180.67H175.645V159.676H191.561C195.821 159.676 199.278 156.182 199.278 151.876V149.622C199.278 147.329 198.29 145.272 196.732 143.841C198.295 142.415 199.278 140.358 199.278 138.06V135.805C199.283 131.494 195.826 128 191.566 128ZM193.976 137.407C193.976 139.425 192.359 141.065 190.356 141.065H180.67V133.754H190.356C192.359 133.754 193.976 135.388 193.976 137.407Z" fill="white"/>
<path d="M152.309 128L138.867 159.676H145.922L155.929 136.293L166 159.676H173.174L159.364 128H152.309Z" fill="white"/>
</svg>
