<svg width="288" height="288" viewBox="0 0 288 288" fill="none" xmlns="http://www.w3.org/2000/svg">
<path d="M83.8671 165.322C83.0847 165.322 82.4531 164.69 82.4531 163.907V122.415C82.4531 121.632 83.0847 121 83.8671 121C84.6495 121 85.2811 121.632 85.2811 122.415V163.907C85.2811 164.69 84.6448 165.322 83.8671 165.322Z" fill="white"/>
<path d="M113.687 122.915H98.2564C97.606 122.915 97.0781 123.443 97.0781 124.093C97.0781 124.744 97.606 125.272 98.2564 125.272H113.687C115.964 125.272 117.816 127.125 117.816 129.403C117.816 131.68 115.964 133.533 113.687 133.533H99.1661C98.5157 133.533 97.9878 134.061 97.9878 134.712V145.33C97.9878 145.981 98.5157 146.509 99.1661 146.509C99.8165 146.509 100.344 145.981 100.344 145.33V135.886H113.687C117.265 135.886 120.173 132.977 120.173 129.398C120.173 125.819 117.26 122.915 113.687 122.915Z" fill="white"/>
<path d="M161.097 133.457H157.359H153.264H151.821C149.545 133.457 147.693 131.604 147.693 129.326C147.693 127.049 149.545 125.196 151.821 125.196H166.347C166.998 125.196 167.526 124.668 167.526 124.017C167.526 123.366 166.998 122.838 166.347 122.838H151.821C148.244 122.838 145.336 125.748 145.336 129.326C145.336 132.905 148.244 135.814 151.821 135.814H153.264H157.359H161.097C163.373 135.814 165.226 137.667 165.226 139.945C165.226 142.222 163.373 144.075 161.097 144.075H146.571C145.92 144.075 145.392 144.603 145.392 145.254C145.392 145.905 145.92 146.433 146.571 146.433H161.097C164.674 146.433 167.582 143.523 167.582 139.945C167.582 136.366 164.674 133.457 161.097 133.457Z" fill="white"/>
<path d="M185.57 133.457H181.832H177.736H176.294C174.017 133.457 172.165 131.604 172.165 129.326C172.165 127.049 174.017 125.196 176.294 125.196H190.82C191.471 125.196 191.998 124.668 191.998 124.017C191.998 123.366 191.471 122.838 190.82 122.838H176.294C172.717 122.838 169.809 125.748 169.809 129.326C169.809 132.905 172.717 135.814 176.294 135.814H177.736H181.832H185.57C187.846 135.814 189.698 137.667 189.698 139.945C189.698 142.222 187.846 144.075 185.57 144.075H171.048C170.398 144.075 169.87 144.603 169.87 145.254C169.87 145.905 170.398 146.433 171.048 146.433H185.57C189.147 146.433 192.055 143.523 192.055 139.945C192.055 136.366 189.147 133.457 185.57 133.457Z" fill="white"/>
<path d="M130.797 124.187C130.595 123.791 130.189 123.541 129.746 123.541C129.303 123.541 128.893 123.791 128.695 124.187L118.642 144.094C118.35 144.674 118.581 145.386 119.161 145.678C119.33 145.763 119.514 145.806 119.693 145.806C120.122 145.806 120.537 145.57 120.744 145.16L129.746 127.332L138.749 145.16C139.041 145.74 139.753 145.975 140.332 145.678C140.912 145.386 141.148 144.674 140.851 144.094L130.797 124.187Z" fill="white"/>
<path d="M202.04 124.093C202.04 123.443 201.512 122.915 200.862 122.915C200.211 122.915 199.684 123.443 199.684 124.093V145.255C199.684 145.905 200.211 146.433 200.862 146.433C201.512 146.433 202.04 145.905 202.04 145.255V124.093Z" fill="white"/>
<path d="M255.327 145.806C255.478 145.806 255.634 145.777 255.78 145.716C256.218 145.532 256.506 145.103 256.506 144.627V124.017C256.506 123.366 255.978 122.838 255.327 122.838C254.677 122.838 254.149 123.366 254.149 124.017V141.784L236.258 123.89C235.923 123.555 235.414 123.451 234.976 123.635C234.538 123.819 234.25 124.248 234.25 124.724V144.631C234.25 145.282 234.778 145.81 235.428 145.81C236.079 145.81 236.607 145.282 236.607 144.631V127.563L254.498 145.457C254.719 145.688 255.016 145.806 255.327 145.806Z" fill="white"/>
<path d="M229.53 134.32C229.53 128.035 224.421 122.924 218.138 122.924C211.855 122.924 206.746 128.035 206.746 134.32C206.746 140.605 211.855 145.717 218.138 145.717C224.421 145.717 229.53 140.605 229.53 134.32ZM218.143 143.359C213.161 143.359 209.107 139.304 209.107 134.32C209.107 129.336 213.161 125.281 218.143 125.281C223.124 125.281 227.178 129.336 227.178 134.32C227.173 139.304 223.12 143.359 218.143 143.359Z" fill="white"/>
<path d="M104.076 159.843C105.188 159.517 106.009 158.485 106.009 157.268C106.009 155.788 104.807 154.585 103.327 154.585H96.8932C96.634 154.585 96.4219 154.798 96.4219 155.057C96.4219 155.316 96.634 155.528 96.8932 155.528H103.327C104.288 155.528 105.066 156.311 105.066 157.268C105.066 158.225 104.284 159.008 103.327 159.008H97.2702C97.011 159.008 96.7989 159.22 96.7989 159.48V163.907C96.7989 164.166 97.011 164.379 97.2702 164.379C97.5295 164.379 97.7416 164.166 97.7416 163.907V159.951H103.053L105.353 163.931C105.443 164.082 105.598 164.167 105.763 164.167C105.844 164.167 105.924 164.148 105.999 164.105C106.225 163.973 106.301 163.686 106.174 163.459L104.076 159.843Z" fill="white"/>
<path d="M132.469 155.524C132.728 155.524 132.94 155.311 132.94 155.052C132.94 154.793 132.728 154.581 132.469 154.581H124.249C123.989 154.581 123.777 154.793 123.777 155.052V163.695C123.777 163.954 123.989 164.166 124.249 164.166H132.469C132.728 164.166 132.94 163.954 132.94 163.695C132.94 163.435 132.728 163.223 132.469 163.223H124.72V159.843H131.003C131.262 159.843 131.474 159.63 131.474 159.371C131.474 159.112 131.262 158.9 131.003 158.9H124.72V155.519H132.469V155.524Z" fill="white"/>
<path d="M155.378 154.845C155.298 154.684 155.133 154.585 154.954 154.585C154.774 154.585 154.609 154.684 154.529 154.845L150.132 163.7C150.014 163.931 150.113 164.214 150.344 164.332C150.58 164.449 150.858 164.35 150.976 164.119L154.954 156.113L158.931 164.119C159.012 164.284 159.181 164.383 159.356 164.379C159.426 164.379 159.497 164.365 159.563 164.332C159.794 164.214 159.893 163.931 159.775 163.7L155.378 154.845Z" fill="white"/>
<path d="M184.14 163.228H177.419V155.052C177.419 154.793 177.207 154.581 176.948 154.581C176.689 154.581 176.477 154.793 176.477 155.052V163.695C176.477 163.954 176.689 164.166 176.948 164.166H184.14C184.399 164.166 184.612 163.954 184.612 163.695C184.612 163.435 184.399 163.228 184.14 163.228Z" fill="white"/>
<path d="M202.358 154.581C202.099 154.581 201.887 154.793 201.887 155.052V163.695C201.887 163.954 202.099 164.166 202.358 164.166C202.617 164.166 202.829 163.954 202.829 163.695V155.052C202.829 154.793 202.622 154.581 202.358 154.581Z" fill="white"/>
<path d="M230.712 154.741H221.776C221.517 154.741 221.305 154.953 221.305 155.212C221.305 155.472 221.517 155.684 221.776 155.684H225.773V163.699C225.773 163.959 225.985 164.171 226.244 164.171C226.503 164.171 226.715 163.959 226.715 163.699V155.684H230.712C230.971 155.684 231.184 155.472 231.184 155.212C231.184 154.953 230.971 154.741 230.712 154.741Z" fill="white"/>
<path d="M256.843 154.387C256.65 154.213 256.353 154.232 256.179 154.425L252.366 158.697L248.213 154.713C248.025 154.534 247.728 154.538 247.549 154.727C247.37 154.916 247.374 155.213 247.563 155.392L251.923 159.574V163.931C251.923 164.19 252.135 164.402 252.394 164.402C252.653 164.402 252.865 164.19 252.865 163.931V159.55L256.881 155.048C257.051 154.859 257.037 154.562 256.843 154.387Z" fill="white"/>
<path d="M54.2773 130.222V167C54.2773 167 56.2663 166.735 56.6858 164.274C57.1053 161.813 62.4972 135.932 62.4972 135.932L75.4868 128.652C75.4868 128.652 76.222 126.242 75.9062 125.823C75.5905 125.403 68.8883 121.579 68.8883 121.579C68.8883 121.579 55.2718 129.331 54.2773 130.222Z" fill="white"/>
<path d="M62.9665 136.663L61.6562 142.585C61.6562 142.585 64.6916 137.818 64.4323 137.554C64.1731 137.295 62.9665 136.663 62.9665 136.663Z" fill="white"/>
<path d="M60.3672 134.466L75.3787 126.153C75.3787 126.153 75.1714 128.072 74.8886 128.246C74.6105 128.421 62.7049 135.409 62.2525 135.409C61.8 135.409 60.683 134.918 60.3672 134.466Z" fill="white"/>
<path d="M52.7077 130.222V167C52.7077 167 50.7188 166.736 50.2993 164.275C49.8798 161.813 44.4879 135.932 44.4879 135.932L31.4983 128.652C31.4983 128.652 30.763 126.243 31.0788 125.823C31.3946 125.404 38.0968 121.58 38.0968 121.58C38.0968 121.58 51.7132 129.331 52.7077 130.222Z" fill="white"/>
<path d="M44.0167 136.663L45.327 142.585C45.327 142.585 42.2916 137.818 42.5509 137.554C42.8101 137.295 44.0167 136.663 44.0167 136.663Z" fill="white"/>
<path d="M46.621 134.466L31.6094 126.153C31.6094 126.153 31.8168 128.072 32.0996 128.247C32.3776 128.421 44.2832 135.409 44.7357 135.409C45.1881 135.409 46.3052 134.919 46.621 134.466Z" fill="white"/>
</svg>
