<svg width="237" height="22" viewBox="0 0 237 22" fill="none" xmlns="http://www.w3.org/2000/svg">
<path d="M16.7795 0.428223L15.3254 2.95621L13.7335 0.428223H1.99051L0 3.16713V18.4787L2.3631 22.0002H9.21609L13.9321 15.1712C13.9321 15.1712 15.3254 13.4854 16.9172 15.1712C18.509 16.8556 21.5216 21.9971 21.5216 21.9971L28.263 21.91L31.0537 17.982V2.89202L29.0589 0.428223H16.7795ZM8.30419 14.4177C6.2093 14.4177 4.51163 12.4461 4.51163 10.0129C4.51163 7.57965 6.2093 5.608 8.30419 5.608C10.3991 5.608 12.0967 7.57965 12.0967 10.0129C12.0982 12.4446 10.3991 14.4177 8.30419 14.4177ZM22.29 14.4407C20.1951 14.4407 18.4974 12.469 18.4974 10.0358C18.4974 7.60257 20.1951 5.63092 22.29 5.63092C24.3849 5.63092 26.0825 7.60257 26.0825 10.0358C26.0825 12.469 24.3849 14.4407 22.29 14.4407Z" fill="white"/>
<path d="M54.3704 0.521484H34.0742V4.8209H54.3704V0.521484Z" fill="white"/>
<path d="M54.3704 9.06348H34.0742V13.3629H54.3704V9.06348Z" fill="white"/>
<path d="M54.3704 17.6069H34.0742V21.9063H54.3704V17.6069Z" fill="white"/>
<path d="M58.3945 4.72611H66.5029V21.8244H70.5795V4.72611H78.6893V0.428223H58.3945V4.72611Z" fill="white"/>
<path d="M87.7771 0.453613L78.999 21.7887L78.9961 21.7978H83.5048L90.0503 6.12859L96.5451 21.7978H101.051L92.28 0.453613H87.7771Z" fill="white"/>
<path d="M110.506 16.1287L103.998 0.464078L99.4922 0.468663L108.282 21.8037L112.785 21.8007L121.543 0.457964L121.547 0.447266L117.038 0.451851L110.506 16.1287Z" fill="white"/>
<path d="M144.148 0.434082H123.852V4.73349H144.148V0.434082Z" fill="white"/>
<path d="M144.148 8.97656H123.852V13.276H144.148V8.97656Z" fill="white"/>
<path d="M144.148 17.52H123.852V21.8194H144.148V17.52Z" fill="white"/>
<path d="M217.316 0.46875H197.02V4.76816H217.316V0.46875Z" fill="white"/>
<path d="M217.316 9.01123H197.02V13.3106H217.316V9.01123Z" fill="white"/>
<path d="M217.316 17.5552H197.02V21.8546H217.316V17.5552Z" fill="white"/>
<path d="M171.48 4.76405V8.54991C172.337 12.9517 176.243 13.3491 176.243 13.3491H185.176H186.33C189.373 15.414 186.33 17.138 186.33 17.138L171.483 17.1319L171.48 21.6407H187.323C191.619 21.7278 191.722 17.4055 191.722 17.4055V13.3858C191.687 8.89381 187.22 8.67677 187.22 8.67677L176.895 8.62175C174.558 6.62871 176.913 4.7992 176.913 4.7992H191.98V0H177.858C171.827 0.16354 171.48 4.76405 171.48 4.76405Z" fill="white"/>
<path d="M162.251 13.2662C165.97 13.2662 168.995 10.3898 168.995 6.85454C168.995 3.31933 165.97 0.442871 162.251 0.442871H149.277V1.35533V1.36756V4.72241H162.251C163.707 4.72241 164.936 5.69907 164.936 6.85454C164.936 8.01002 163.707 8.98667 162.251 8.98667H149.292V10.1742H149.289L149.292 12.1306V13.2662H154.612L163.382 21.6419H170.177L161.236 13.2662H162.251Z" fill="white"/>
<path d="M230.354 4.54966L233.593 7.61565H236.002L232.7 4.54966H233.129C234.328 4.54966 235.302 3.63415 235.302 2.50924C235.302 1.38433 234.328 0.468814 233.129 0.468814H229.777L229.778 0.467285H228.41L226.469 3.00903L224.548 0.467285H222.724H222.57L225.552 3.949L222.48 7.67984H224.535L226.467 5.11059L228.391 7.67984H230.467L227.414 3.94289L228.948 1.68695V1.83063H233.129C233.597 1.83063 233.994 2.14089 233.994 2.50924C233.994 2.87758 233.598 3.18785 233.129 3.18785H228.954V3.65554H228.935L228.936 4.37542H228.954V4.54966H230.354Z" fill="white"/>
</svg>
