<svg width="214" height="66" viewBox="0 0 214 66" fill="none" xmlns="http://www.w3.org/2000/svg">
<path d="M43.6932 50H34.625L46.4034 15.0909H57.6364L69.4148 50H60.3466L52.1477 23.8864H51.875L43.6932 50ZM42.483 36.2614H61.4375V42.6705H42.483V36.2614ZM73.1733 50V15.0909H81.5085V28.3011H81.679C82.0199 27.5057 82.5028 26.7386 83.1278 26C83.7642 25.2614 84.571 24.6591 85.5483 24.1932C86.5369 23.7159 87.7188 23.4773 89.0938 23.4773C90.9119 23.4773 92.6108 23.9545 94.1903 24.9091C95.7812 25.8636 97.0653 27.3352 98.0426 29.3239C99.0199 31.3125 99.5085 33.8466 99.5085 36.9261C99.5085 39.892 99.0369 42.375 98.0938 44.375C97.1619 46.375 95.9006 47.875 94.3097 48.875C92.7301 49.875 90.9744 50.375 89.0426 50.375C87.7244 50.375 86.5824 50.1591 85.6165 49.7273C84.6506 49.2955 83.8381 48.7273 83.179 48.0227C82.5312 47.3182 82.0313 46.5625 81.679 45.7557H81.4233V50H73.1733ZM81.3381 36.9091C81.3381 38.3182 81.5256 39.5455 81.9006 40.5909C82.2869 41.6364 82.8381 42.4489 83.554 43.0284C84.2812 43.5966 85.1506 43.8807 86.1619 43.8807C87.1847 43.8807 88.054 43.5966 88.7699 43.0284C89.4858 42.4489 90.0256 41.6364 90.3892 40.5909C90.7642 39.5455 90.9517 38.3182 90.9517 36.9091C90.9517 35.5 90.7642 34.2784 90.3892 33.2443C90.0256 32.2102 89.4858 31.4091 88.7699 30.8409C88.0653 30.2727 87.196 29.9886 86.1619 29.9886C85.1392 29.9886 84.2699 30.267 83.554 30.8239C82.8381 31.3807 82.2869 32.1761 81.9006 33.2102C81.5256 34.2443 81.3381 35.4773 81.3381 36.9091ZM116.098 50.4943C113.348 50.4943 110.984 49.9318 109.007 48.8068C107.041 47.6705 105.524 46.0909 104.456 44.0682C103.399 42.0341 102.871 39.6761 102.871 36.9943C102.871 34.3011 103.399 31.9432 104.456 29.9205C105.524 27.8864 107.041 26.3068 109.007 25.1818C110.984 24.0455 113.348 23.4773 116.098 23.4773C118.848 23.4773 121.206 24.0455 123.172 25.1818C125.149 26.3068 126.666 27.8864 127.723 29.9205C128.791 31.9432 129.325 34.3011 129.325 36.9943C129.325 39.6761 128.791 42.0341 127.723 44.0682C126.666 46.0909 125.149 47.6705 123.172 48.8068C121.206 49.9318 118.848 50.4943 116.098 50.4943ZM116.149 44.2045C117.149 44.2045 117.996 43.8977 118.689 43.2841C119.382 42.6705 119.911 41.8182 120.274 40.7273C120.649 39.6364 120.837 38.375 120.837 36.9432C120.837 35.4886 120.649 34.2159 120.274 33.125C119.911 32.0341 119.382 31.1818 118.689 30.5682C117.996 29.9545 117.149 29.6477 116.149 29.6477C115.115 29.6477 114.24 29.9545 113.524 30.5682C112.82 31.1818 112.28 32.0341 111.905 33.125C111.541 34.2159 111.359 35.4886 111.359 36.9432C111.359 38.375 111.541 39.6364 111.905 40.7273C112.28 41.8182 112.82 42.6705 113.524 43.2841C114.24 43.8977 115.115 44.2045 116.149 44.2045ZM150.487 38.6989V23.8182H158.805V50H150.862V45.125H150.589C150.01 46.7273 149.021 48 147.624 48.9432C146.237 49.875 144.561 50.3409 142.595 50.3409C140.811 50.3409 139.243 49.9318 137.891 49.1136C136.538 48.2955 135.487 47.1534 134.737 45.6875C133.987 44.2102 133.607 42.483 133.595 40.5057V23.8182H141.93V38.8693C141.942 40.2898 142.317 41.4091 143.055 42.2273C143.794 43.0455 144.8 43.4545 146.072 43.4545C146.902 43.4545 147.646 43.2727 148.305 42.9091C148.976 42.5341 149.504 41.9943 149.891 41.2898C150.288 40.5739 150.487 39.7102 150.487 38.6989ZM178.889 23.8182V29.9545H162.372V23.8182H178.889ZM165.832 17.5455H174.168V41.767C174.168 42.2784 174.247 42.6932 174.406 43.0114C174.577 43.3182 174.821 43.5398 175.139 43.6761C175.457 43.8011 175.838 43.8636 176.281 43.8636C176.599 43.8636 176.935 43.8352 177.287 43.7784C177.651 43.7102 177.923 43.6534 178.105 43.608L179.366 49.625C178.969 49.7386 178.406 49.8807 177.679 50.0511C176.963 50.2216 176.105 50.3295 175.105 50.375C173.151 50.4659 171.474 50.2386 170.077 49.6932C168.69 49.1364 167.628 48.2727 166.889 47.1023C166.162 45.9318 165.81 44.4602 165.832 42.6875V17.5455Z" fill="url(#paint0_linear_163_550)"/>
<g filter="url(#filter0_f_163_550)">
<path d="M43.6932 50H34.625L46.4034 15.0909H57.6364L69.4148 50H60.3466L52.1477 23.8864H51.875L43.6932 50ZM42.483 36.2614H61.4375V42.6705H42.483V36.2614ZM73.1733 50V15.0909H81.5085V28.3011H81.679C82.0199 27.5057 82.5028 26.7386 83.1278 26C83.7642 25.2614 84.571 24.6591 85.5483 24.1932C86.5369 23.7159 87.7188 23.4773 89.0938 23.4773C90.9119 23.4773 92.6108 23.9545 94.1903 24.9091C95.7812 25.8636 97.0653 27.3352 98.0426 29.3239C99.0199 31.3125 99.5085 33.8466 99.5085 36.9261C99.5085 39.892 99.0369 42.375 98.0938 44.375C97.1619 46.375 95.9006 47.875 94.3097 48.875C92.7301 49.875 90.9744 50.375 89.0426 50.375C87.7244 50.375 86.5824 50.1591 85.6165 49.7273C84.6506 49.2955 83.8381 48.7273 83.179 48.0227C82.5312 47.3182 82.0313 46.5625 81.679 45.7557H81.4233V50H73.1733ZM81.3381 36.9091C81.3381 38.3182 81.5256 39.5455 81.9006 40.5909C82.2869 41.6364 82.8381 42.4489 83.554 43.0284C84.2812 43.5966 85.1506 43.8807 86.1619 43.8807C87.1847 43.8807 88.054 43.5966 88.7699 43.0284C89.4858 42.4489 90.0256 41.6364 90.3892 40.5909C90.7642 39.5455 90.9517 38.3182 90.9517 36.9091C90.9517 35.5 90.7642 34.2784 90.3892 33.2443C90.0256 32.2102 89.4858 31.4091 88.7699 30.8409C88.0653 30.2727 87.196 29.9886 86.1619 29.9886C85.1392 29.9886 84.2699 30.267 83.554 30.8239C82.8381 31.3807 82.2869 32.1761 81.9006 33.2102C81.5256 34.2443 81.3381 35.4773 81.3381 36.9091ZM116.098 50.4943C113.348 50.4943 110.984 49.9318 109.007 48.8068C107.041 47.6705 105.524 46.0909 104.456 44.0682C103.399 42.0341 102.871 39.6761 102.871 36.9943C102.871 34.3011 103.399 31.9432 104.456 29.9205C105.524 27.8864 107.041 26.3068 109.007 25.1818C110.984 24.0455 113.348 23.4773 116.098 23.4773C118.848 23.4773 121.206 24.0455 123.172 25.1818C125.149 26.3068 126.666 27.8864 127.723 29.9205C128.791 31.9432 129.325 34.3011 129.325 36.9943C129.325 39.6761 128.791 42.0341 127.723 44.0682C126.666 46.0909 125.149 47.6705 123.172 48.8068C121.206 49.9318 118.848 50.4943 116.098 50.4943ZM116.149 44.2045C117.149 44.2045 117.996 43.8977 118.689 43.2841C119.382 42.6705 119.911 41.8182 120.274 40.7273C120.649 39.6364 120.837 38.375 120.837 36.9432C120.837 35.4886 120.649 34.2159 120.274 33.125C119.911 32.0341 119.382 31.1818 118.689 30.5682C117.996 29.9545 117.149 29.6477 116.149 29.6477C115.115 29.6477 114.24 29.9545 113.524 30.5682C112.82 31.1818 112.28 32.0341 111.905 33.125C111.541 34.2159 111.359 35.4886 111.359 36.9432C111.359 38.375 111.541 39.6364 111.905 40.7273C112.28 41.8182 112.82 42.6705 113.524 43.2841C114.24 43.8977 115.115 44.2045 116.149 44.2045ZM150.487 38.6989V23.8182H158.805V50H150.862V45.125H150.589C150.01 46.7273 149.021 48 147.624 48.9432C146.237 49.875 144.561 50.3409 142.595 50.3409C140.811 50.3409 139.243 49.9318 137.891 49.1136C136.538 48.2955 135.487 47.1534 134.737 45.6875C133.987 44.2102 133.607 42.483 133.595 40.5057V23.8182H141.93V38.8693C141.942 40.2898 142.317 41.4091 143.055 42.2273C143.794 43.0455 144.8 43.4545 146.072 43.4545C146.902 43.4545 147.646 43.2727 148.305 42.9091C148.976 42.5341 149.504 41.9943 149.891 41.2898C150.288 40.5739 150.487 39.7102 150.487 38.6989ZM178.889 23.8182V29.9545H162.372V23.8182H178.889ZM165.832 17.5455H174.168V41.767C174.168 42.2784 174.247 42.6932 174.406 43.0114C174.577 43.3182 174.821 43.5398 175.139 43.6761C175.457 43.8011 175.838 43.8636 176.281 43.8636C176.599 43.8636 176.935 43.8352 177.287 43.7784C177.651 43.7102 177.923 43.6534 178.105 43.608L179.366 49.625C178.969 49.7386 178.406 49.8807 177.679 50.0511C176.963 50.2216 176.105 50.3295 175.105 50.375C173.151 50.4659 171.474 50.2386 170.077 49.6932C168.69 49.1364 167.628 48.2727 166.889 47.1023C166.162 45.9318 165.81 44.4602 165.832 42.6875V17.5455Z" fill="url(#paint1_linear_163_550)"/>
</g>
<defs>
<filter id="filter0_f_163_550" x="19.625" y="0.0908203" width="174.742" height="65.4207" filterUnits="userSpaceOnUse" color-interpolation-filters="sRGB">
<feFlood flood-opacity="0" result="BackgroundImageFix"/>
<feBlend mode="normal" in="SourceGraphic" in2="BackgroundImageFix" result="shape"/>
<feGaussianBlur stdDeviation="7.5" result="effect1_foregroundBlur_163_550"/>
</filter>
<linearGradient id="paint0_linear_163_550" x1="11.7925" y1="33" x2="182.264" y2="33" gradientUnits="userSpaceOnUse">
<stop stop-color="#0F5CEB"/>
<stop offset="1" stop-color="#21ECCF"/>
</linearGradient>
<linearGradient id="paint1_linear_163_550" x1="11.7925" y1="33" x2="182.264" y2="33" gradientUnits="userSpaceOnUse">
<stop stop-color="#0F5CEB" stop-opacity="0"/>
<stop offset="1" stop-color="#21ECCF"/>
</linearGradient>
</defs>
</svg>
