<svg width="214" height="20" viewBox="0 0 214 20" fill="none" xmlns="http://www.w3.org/2000/svg">
<path d="M15.2152 0.370033L13.8967 2.55587L12.4532 0.370033H1.80495L0 2.73824V15.9775L2.1428 19.0223H8.35693L12.6333 13.1177C12.6333 13.1177 13.8967 11.66 15.3401 13.1177C16.7835 14.574 19.5153 19.0197 19.5153 19.0197L25.6282 18.9443L28.1588 15.548V2.50036L26.3499 0.370033H15.2152ZM7.53004 12.4661C5.63044 12.4661 4.09104 10.7613 4.09104 8.65744C4.09104 6.55354 5.63044 4.84875 7.53004 4.84875C9.42964 4.84875 10.969 6.55354 10.969 8.65744C10.9704 10.76 9.42964 12.4661 7.53004 12.4661ZM20.212 12.486C18.3124 12.486 16.773 10.7812 16.773 8.67727C16.773 6.57337 18.3124 4.86857 20.212 4.86857C22.1116 4.86857 23.651 6.57337 23.651 8.67727C23.651 10.7812 22.1116 12.486 20.212 12.486Z" fill="white"/>
<path d="M49.3029 0.450642H30.8984V4.16815H49.3029V0.450642Z" fill="white"/>
<path d="M49.3029 7.83676H30.8984V11.5543H49.3029V7.83676Z" fill="white"/>
<path d="M49.3029 15.2242H30.8984V18.9417H49.3029V15.2242Z" fill="white"/>
<path d="M52.9492 4.08622H60.3018V18.8703H63.9985V4.08622H71.3523V0.370033H52.9492V4.08622Z" fill="white"/>
<path d="M79.5915 0.392502L71.6315 18.8399L71.6289 18.8479H75.7173L81.6528 5.2994L87.5422 18.8479H91.628L83.6746 0.392502H79.5915Z" fill="white"/>
<path d="M100.198 13.9463L94.2967 0.401748L90.2109 0.405712L98.1814 18.8532L102.265 18.8505L110.206 0.396462L110.21 0.387211L106.122 0.391175L100.198 13.9463Z" fill="white"/>
<path d="M130.709 0.37532H112.305V4.09283H130.709V0.37532Z" fill="white"/>
<path d="M130.709 7.76143H112.305V11.4789H130.709V7.76143Z" fill="white"/>
<path d="M130.709 15.1489H112.305V18.8664H130.709V15.1489Z" fill="white"/>
<path d="M197.053 0.405716H178.648V4.12322H197.053V0.405716Z" fill="white"/>
<path d="M197.053 7.79184H178.648V11.5093H197.053V7.79184Z" fill="white"/>
<path d="M197.053 15.1793H178.648V18.8968H197.053V15.1793Z" fill="white"/>
<path d="M155.496 4.11926V7.39272C156.273 11.1988 159.815 11.5424 159.815 11.5424H167.915H168.962C171.721 13.3278 168.962 14.8185 168.962 14.8185L155.499 14.8132L155.496 18.7118H169.862C173.757 18.7871 173.851 15.0498 173.851 15.0498V11.5741C173.819 7.69007 169.769 7.50241 169.769 7.50241L160.406 7.45484C158.287 5.73154 160.422 4.14965 160.422 4.14965H174.085V0H161.279C155.81 0.141405 155.496 4.11926 155.496 4.11926Z" fill="white"/>
<path d="M147.128 11.471C150.5 11.471 153.243 8.98386 153.243 5.92713C153.243 2.87039 150.5 0.383247 147.128 0.383247H135.363V1.17221V1.18278V4.08357H147.128C148.448 4.08357 149.562 4.92804 149.562 5.92713C149.562 6.92622 148.448 7.77068 147.128 7.77068H135.376V8.79752H135.374L135.376 10.4891V11.471H140.201L148.153 18.7131H154.315L146.207 11.471H147.128V11.471Z" fill="white"/>
<path d="M208.878 3.93424L211.815 6.58526H214L211.005 3.93424H211.394C212.481 3.93424 213.365 3.14263 213.365 2.16998C213.365 1.19732 212.481 0.405714 211.394 0.405714H208.355L208.356 0.404392H207.115L205.355 2.60212L203.613 0.404392H201.959H201.82L204.524 3.41487L201.738 6.64076H203.601L205.353 4.41925L207.098 6.64076H208.98L206.212 3.40959L207.603 1.45899V1.58321H211.394C211.819 1.58321 212.179 1.85148 212.179 2.16998C212.179 2.48847 211.82 2.75674 211.394 2.75674H207.608V3.16114H207.591L207.592 3.78358H207.608V3.93424H208.878V3.93424Z" fill="white"/>
</svg>
