<svg width="60" height="60" viewBox="0 0 60 60" fill="none" xmlns="http://www.w3.org/2000/svg">
<path d="M22.7283 35.4114C28.3826 37.6381 33.1945 38.0718 38.6474 34.6059C38.6074 34.6664 37.5288 36.2789 34.6923 37.1053C35.2915 37.9317 36.1105 38.8791 36.1105 38.8791C37.9283 38.8791 39.7061 38.355 41.2441 37.3471C42.4426 36.5409 43.1217 35.15 42.9819 33.6988C42.7422 31.2195 42.1629 28.8007 41.2641 26.4827C40.1255 23.4592 37.3889 21.3629 34.2129 21.0605C33.9332 21.0403 33.7335 21.0403 33.6136 21.0403L33.2941 21.3628C36.9495 22.411 38.7673 24.0437 38.8072 24.1042C33.1941 21.2419 26.5625 21.2016 20.9095 23.9832C20.9095 23.9832 22.7072 22.1893 26.6822 21.2419L26.4425 21C26.0231 21 25.6235 21.0403 25.2041 21.1008C22.2678 21.6047 19.8109 23.6405 18.7521 26.4423C17.8333 28.8611 17.234 31.4009 17.0143 33.9809C16.8945 35.3516 17.5337 36.7021 18.6523 37.4883C20.1304 38.4759 21.8882 39 23.666 39C23.666 39 24.3851 38.0526 25.1042 37.206C22.4076 36.3998 21.309 34.7872 21.289 34.7267L21.7965 34.9882C22.0999 35.1447 22.4109 35.2864 22.7283 35.4114V35.4114ZM25.8633 33.6585C24.5649 33.6181 23.5462 32.5095 23.5861 31.1792C23.6261 29.9294 24.6249 28.9216 25.8633 28.8813C27.1617 28.9216 28.1804 30.0302 28.1405 31.3606C28.0805 32.6104 27.1017 33.6182 25.8633 33.6585V33.6585ZM34.0131 33.6585C32.7147 33.6181 31.696 32.5095 31.7359 31.1792C31.7759 29.9294 32.7747 28.9216 34.0131 28.8813C35.3115 28.9216 36.3302 30.0302 36.2903 31.3606C36.2503 32.6104 35.2515 33.6182 34.0131 33.6585V33.6585Z" fill="white"/>
</svg>
