<svg width="60" height="60" viewBox="0 0 60 60" fill="none" xmlns="http://www.w3.org/2000/svg">
<path d="M39.9492 25.8801C39.9024 24.8174 39.7305 24.0868 39.4843 23.4537C39.2303 22.7818 38.8395 22.1802 38.3275 21.68C37.8273 21.1721 37.2216 20.7774 36.5572 20.5274C35.9204 20.2813 35.1935 20.1094 34.1306 20.0626C33.0598 20.0118 32.7198 20 30.0039 20C27.288 20 26.9481 20.0118 25.8812 20.0586C24.8183 20.1055 24.0876 20.2775 23.4546 20.5235C22.7823 20.7774 22.1806 21.1681 21.6803 21.68C21.1723 22.1802 20.7777 22.7857 20.5276 23.4499C20.2813 24.0868 20.1094 24.8134 20.0626 25.8761C20.0118 26.9467 20 27.2866 20 30.002C20 32.7174 20.0118 33.0572 20.0586 34.1239C20.1055 35.1866 20.2775 35.9172 20.5237 36.5502C20.7777 37.2222 21.1723 37.8238 21.6803 38.3239C22.1806 38.8319 22.7863 39.2265 23.4506 39.4765C24.0876 39.7227 24.8144 39.8945 25.8774 39.9414C26.9441 39.9884 27.2842 40 30.0001 40C32.716 40 33.056 39.9884 34.1228 39.9414C35.1857 39.8945 35.9164 39.7227 36.5495 39.4765C37.8938 38.9569 38.9567 37.8942 39.4765 36.5502C39.7225 35.9133 39.8946 35.1866 39.9414 34.1239C39.9883 33.0572 40.0001 32.7174 40.0001 30.002C40.0001 27.2866 39.9961 26.9467 39.9492 25.8801ZM38.1478 34.0458C38.1048 35.0225 37.9407 35.55 37.8039 35.9016C37.4678 36.7729 36.7761 37.4644 35.9047 37.8005C35.553 37.9372 35.0216 38.1013 34.0485 38.1442C32.9934 38.1912 32.6769 38.2028 30.0079 38.2028C27.3388 38.2028 27.0184 38.1912 25.9672 38.1442C24.9902 38.1013 24.4627 37.9372 24.111 37.8005C23.6773 37.6402 23.2825 37.3863 22.9621 37.0542C22.63 36.7298 22.376 36.3391 22.2157 35.9056C22.0789 35.5539 21.9148 35.0225 21.8719 34.0497C21.8249 32.9948 21.8133 32.6783 21.8133 30.0098C21.8133 27.3412 21.8249 27.0209 21.8719 25.97C21.9148 24.9932 22.0789 24.4658 22.2157 24.1141C22.376 23.6804 22.63 23.2859 22.9661 22.9654C23.2903 22.6333 23.6811 22.3793 24.1149 22.2192C24.4666 22.0825 24.9981 21.9184 25.9711 21.8754C27.0262 21.8285 27.3428 21.8168 30.0117 21.8168C32.6847 21.8168 33.0012 21.8285 34.0524 21.8754C35.0294 21.9184 35.5569 22.0825 35.9086 22.2192C36.3423 22.3793 36.7371 22.6333 37.0575 22.9654C37.3896 23.2897 37.6436 23.6804 37.8039 24.1141C37.9407 24.4658 38.1048 24.997 38.1478 25.97C38.1947 27.0249 38.2065 27.3412 38.2065 30.0098C38.2065 32.6783 38.1947 32.9909 38.1478 34.0458Z" fill="white"/>
<path d="M30.0059 24.8642C27.169 24.8642 24.8672 27.1654 24.8672 30.002C24.8672 32.8385 27.169 35.1397 30.0059 35.1397C32.843 35.1397 35.1447 32.8385 35.1447 30.002C35.1447 27.1654 32.843 24.8642 30.0059 24.8642ZM30.0059 33.3347C28.1654 33.3347 26.6726 31.8423 26.6726 30.002C26.6726 28.1617 28.1654 26.6693 30.0059 26.6693C31.8465 26.6693 33.3393 28.1617 33.3393 30.002C33.3393 31.8423 31.8465 33.3347 30.0059 33.3347V33.3347Z" fill="white"/>
<path d="M36.544 24.6611C36.544 25.3235 36.0068 25.8605 35.3442 25.8605C34.6817 25.8605 34.1445 25.3235 34.1445 24.6611C34.1445 23.9986 34.6817 23.4617 35.3442 23.4617C36.0068 23.4617 36.544 23.9986 36.544 24.6611V24.6611Z" fill="white"/>
</svg>
