<svg width="60" height="60" viewBox="0 0 60 60" fill="none" xmlns="http://www.w3.org/2000/svg">
<path d="M24.1312 22C22.9569 22 22.0009 22.9578 22 24.1354C22 25.313 22.9561 26.271 24.1312 26.271C25.3058 26.271 26.2614 25.313 26.2614 24.1354C26.2614 22.958 25.3058 22 24.1312 22Z" fill="white"/>
<path d="M25.7326 27.1293H22.5334C22.3812 27.1293 22.2578 27.2529 22.2578 27.4055V37.7238C22.2578 37.8764 22.3812 38 22.5334 38H25.7325C25.8848 38 26.0082 37.8763 26.0082 37.7238V27.4055C26.0083 27.2529 25.8848 27.1293 25.7326 27.1293Z" fill="white"/>
<path d="M33.9163 27.0072C32.7455 27.0072 31.7167 27.3645 31.0889 27.947V27.405C31.0889 27.2523 30.9655 27.1287 30.8132 27.1287H27.7444C27.5922 27.1287 27.4688 27.2523 27.4688 27.405V37.7232C27.4688 37.8758 27.5922 37.9994 27.7444 37.9994H30.9405C31.0928 37.9994 31.2162 37.8757 31.2162 37.7232V32.6183C31.2162 31.1536 31.4851 30.2457 32.8268 30.2457C34.1488 30.2473 34.2477 31.2208 34.2477 32.7058V37.7232C34.2477 37.8758 34.3712 37.9994 34.5235 37.9994H37.721C37.8732 37.9994 37.9967 37.8757 37.9967 37.7232V32.0632C37.9966 29.7092 37.5328 27.0072 33.9163 27.0072Z" fill="white"/>
</svg>
