<svg width="60" height="60" viewBox="0 0 60 60" fill="none" xmlns="http://www.w3.org/2000/svg">
<path d="M40 23.8942C39.2563 24.2154 38.4638 24.4283 37.6375 24.5317C38.4875 24.032 39.1363 23.2468 39.4413 22.3003C38.6488 22.7655 37.7738 23.0942 36.8412 23.2775C36.0887 22.4886 35.0163 22 33.8463 22C31.5763 22 29.7487 23.8142 29.7487 26.0382C29.7487 26.3582 29.7762 26.6658 29.8438 26.9588C26.435 26.7951 23.4188 25.1865 21.3925 22.736C21.0388 23.3403 20.8313 24.032 20.8313 24.7766C20.8313 26.1748 21.5625 27.4142 22.6525 28.1317C21.9937 28.1194 21.3475 27.9311 20.8 27.6345C20.8 27.6468 20.8 27.6628 20.8 27.6788C20.8 29.6406 22.2212 31.2702 24.085 31.6455C23.7512 31.7354 23.3875 31.7785 23.01 31.7785C22.7475 31.7785 22.4825 31.7637 22.2337 31.7095C22.765 33.3083 24.2725 34.4837 26.065 34.5218C24.67 35.5963 22.8988 36.2437 20.9813 36.2437C20.645 36.2437 20.3225 36.2289 20 36.1883C21.8162 37.3415 23.9688 38 26.29 38C33.835 38 37.96 31.8462 37.96 26.512C37.96 26.3335 37.9538 26.1612 37.945 25.9902C38.7588 25.4215 39.4425 24.7114 40 23.8942Z" fill="white"/>
</svg>
