<svg width="60" height="60" viewBox="0 0 60 60" fill="none" xmlns="http://www.w3.org/2000/svg">
<path d="M42.1787 23.8539C41.8825 22.7525 41.0141 21.8843 39.9129 21.5877C37.9011 21.0373 29.8539 21.0373 29.8539 21.0373C29.8539 21.0373 21.807 21.0373 19.7952 21.5669C18.7152 21.8631 17.8257 22.7527 17.5294 23.8539C17 25.8655 17 30.0373 17 30.0373C17 30.0373 17 34.2301 17.5294 36.2207C17.826 37.3219 18.694 38.1901 19.7954 38.4867C21.8282 39.0373 29.8542 39.0373 29.8542 39.0373C29.8542 39.0373 37.9011 39.0373 39.9129 38.5077C41.0143 38.2113 41.8825 37.3431 42.179 36.2419C42.7083 34.2301 42.7083 30.0585 42.7083 30.0585C42.7083 30.0585 42.7295 25.8655 42.1787 23.8539V23.8539ZM27.2919 33.8914V26.1832L33.9835 30.0373L27.2919 33.8914Z" fill="white"/>
</svg>
