<svg width="65" height="64" viewBox="0 0 65 64" fill="none" xmlns="http://www.w3.org/2000/svg">
<path d="M1.4302 17.5253C1.94026 17.5253 2.35258 17.113 2.35258 16.6029V1.84477H17.1107C17.6208 1.84477 18.0331 1.43244 18.0331 0.922383C18.0331 0.412324 17.6208 0 17.1107 0H1.4302C0.920136 0 0.507812 0.412324 0.507812 0.922383V16.6029C0.507812 17.113 0.920136 17.5253 1.4302 17.5253Z" fill="white"/>
<path d="M17.1107 61.1552H2.35258V46.3971C2.35258 45.8871 1.94026 45.4747 1.4302 45.4747C0.920136 45.4747 0.507812 45.8901 0.507812 46.3971V62.0776C0.507812 62.5877 0.920136 63 1.4302 63H17.1107C17.6208 63 18.0331 62.5877 18.0331 62.0776C18.0331 61.5706 17.6208 61.1552 17.1107 61.1552Z" fill="white"/>
<path d="M62.4623 45.4747C61.9522 45.4747 61.5399 45.8871 61.5399 46.3971V61.1552H46.7818C46.2717 61.1552 45.8594 61.5676 45.8594 62.0776C45.8594 62.5877 46.2717 63 46.7818 63H62.4623C62.9723 63 63.3847 62.5877 63.3847 62.0776V46.3971C63.3847 45.8901 62.9723 45.4747 62.4623 45.4747Z" fill="white"/>
<path d="M62.4623 0H46.7818C46.2717 0 45.8594 0.412324 45.8594 0.922383C45.8594 1.43244 46.2717 1.84477 46.7818 1.84477H61.5399V16.6029C61.5399 17.113 61.9522 17.5253 62.4623 17.5253C62.9723 17.5253 63.3847 17.113 63.3847 16.6029V0.922383C63.3847 0.412324 62.9723 0 62.4623 0Z" fill="white"/>
<path d="M36.4851 32.4239H40.4129C40.5137 32.7874 40.8344 33.0684 41.2345 33.0958C41.2559 33.0989 41.2773 33.0989 41.2986 33.0989C41.7171 33.0989 42.0775 32.8179 42.1874 32.4239H51.8083C52.3184 32.4239 52.7307 32.0116 52.7307 31.5015C52.7307 30.9915 52.3184 30.5791 51.8083 30.5791H42.3371L42.4806 28.5267C42.5173 28.0197 42.1324 27.5768 41.6254 27.5432C41.1154 27.5096 40.6756 27.8914 40.642 28.3984L40.4893 30.5791H23.4007L22.9334 23.8781C22.8449 22.5984 23.2786 21.3767 24.1521 20.439C25.0256 19.5014 26.2137 18.9852 27.4965 18.9852H31.9435H31.9465H31.9496H36.3966C37.6794 18.9852 38.8644 19.5014 39.741 20.439C40.6145 21.3767 41.0482 22.5984 40.9596 23.8781L40.8894 24.8891C40.8527 25.3961 41.2375 25.8389 41.7446 25.8725C42.2516 25.9061 42.6944 25.5244 42.728 25.0174L42.7983 24.0064C42.9204 22.238 42.2974 20.4757 41.0879 19.1807C39.9731 17.9865 38.4307 17.2626 36.8089 17.1557C38.3605 15.7996 39.3409 13.8083 39.3409 11.5909C39.3409 7.51345 36.0239 4.19653 31.9465 4.19653C30.7065 4.19653 29.4787 4.50807 28.3975 5.10059C27.9516 5.34493 27.7866 5.90691 28.031 6.35283C28.2753 6.79875 28.8373 6.96368 29.2832 6.71934C30.0926 6.27648 31.015 6.0413 31.9465 6.0413C35.0069 6.0413 37.4961 8.53051 37.4961 11.5909C37.4961 14.6512 35.0069 17.1404 31.9496 17.1404H31.9465C28.8862 17.1404 26.4 14.6512 26.4 11.5909C26.4 10.6777 26.626 9.77054 27.0536 8.97338C27.2949 8.5244 27.1269 7.96548 26.6749 7.72419C26.2259 7.48291 25.667 7.65089 25.4257 8.10292C24.8546 9.16885 24.5522 10.3753 24.5522 11.5939C24.5522 13.8113 25.5357 15.8027 27.0842 17.1588C25.4624 17.2657 23.92 17.9895 22.8052 19.1837C21.5957 20.4818 20.9726 22.241 21.0948 24.0125L21.5529 30.5852H12.0786C11.5686 30.5852 11.1562 30.9976 11.1562 31.5076C11.1562 32.0177 11.5686 32.43 12.0786 32.43H21.6812L21.7056 32.7996C21.7392 33.2852 22.1454 33.6578 22.625 33.6578C22.6463 33.6578 22.6677 33.6578 22.6891 33.6548C23.1961 33.6212 23.5809 33.1783 23.5443 32.6713L23.526 32.43H36.4851V32.4239Z" fill="white"/>
<path d="M27.4623 52.9974C27.9693 52.9516 28.345 52.5026 28.2992 51.9956L28.1862 50.7708C28.1404 50.2638 27.6914 49.8881 27.1844 49.934C26.6774 49.9798 26.3017 50.4287 26.3475 50.9358L26.4605 52.1605C26.5033 52.64 26.9065 53.0004 27.3799 53.0004C27.4043 53.0004 27.4348 53.0004 27.4623 52.9974Z" fill="white"/>
<path d="M27.0687 48.7093C27.5757 48.6635 27.9514 48.2145 27.9055 47.7075L27.7925 46.4827C27.7467 45.9757 27.2977 45.6001 26.7907 45.6459C26.2837 45.6917 25.9111 46.1407 25.9569 46.6477L26.0699 47.8724C26.1127 48.3519 26.5159 48.7123 26.9862 48.7123C27.0137 48.7123 27.0412 48.7123 27.0687 48.7093Z" fill="white"/>
<path d="M28.6898 56.2838L28.5768 55.059C28.531 54.552 28.082 54.1764 27.575 54.2222C27.068 54.268 26.6923 54.717 26.7382 55.224L26.8512 56.4487C26.8939 56.9282 27.2971 57.2886 27.7705 57.2886C27.798 57.2886 27.8255 57.2886 27.856 57.2856C28.363 57.2398 28.7356 56.7908 28.6898 56.2838Z" fill="white"/>
<path d="M25.8493 40.7223C26.0051 40.2367 25.7363 39.7175 25.2507 39.5648C24.988 39.4823 24.7406 39.3388 24.536 39.1525C24.1603 38.8104 23.577 38.8348 23.2318 39.2135C22.8897 39.5892 22.9172 40.1726 23.2929 40.5177C23.693 40.8812 24.1756 41.1621 24.6918 41.324C24.7834 41.3546 24.8781 41.3668 24.9727 41.3668C25.3606 41.3668 25.7241 41.1163 25.8493 40.7223Z" fill="white"/>
<path d="M26.6811 44.421C27.1881 44.3751 27.5638 43.9262 27.5179 43.4192L27.4049 42.1944C27.3591 41.6874 26.9102 41.3117 26.4031 41.3575C25.8961 41.4034 25.5205 41.8523 25.5663 42.3593L25.6793 43.5841C25.7221 44.0636 26.1252 44.424 26.5986 44.424C26.6261 44.424 26.6536 44.424 26.6811 44.421Z" fill="white"/>
<path d="M23.8563 36.9595L23.7708 35.7316C23.7341 35.2216 23.2943 34.8398 22.7873 34.8765C22.2803 34.9131 21.8955 35.3529 21.9321 35.8599L22.0176 37.0877C22.0512 37.5734 22.4574 37.946 22.937 37.946C22.9583 37.946 22.9797 37.946 23.0011 37.9429C23.5081 37.9093 23.8929 37.4695 23.8563 36.9595Z" fill="white"/>
<path d="M40.8936 38.6821C40.4844 38.3797 39.9071 38.4652 39.6017 38.8714C39.4367 39.0944 39.2199 39.2807 38.9786 39.4151C38.5327 39.6594 38.3678 40.2214 38.6152 40.6673C38.7831 40.9728 39.0977 41.1469 39.4245 41.1469C39.5742 41.1469 39.7269 41.1102 39.8674 41.0338C40.3408 40.7742 40.7623 40.4077 41.083 39.974C41.3884 39.5648 41.3029 38.9844 40.8936 38.6821Z" fill="white"/>
<path d="M37.5452 40.8047C37.0382 40.7589 36.5893 41.1315 36.5435 41.6416L36.4335 42.8663C36.3877 43.3733 36.7603 43.8223 37.2673 43.8681C37.2948 43.8712 37.3253 43.8712 37.3528 43.8712C37.8232 43.8712 38.2263 43.5108 38.2691 43.0313L38.3821 41.8065C38.4279 41.2995 38.0522 40.8536 37.5452 40.8047Z" fill="white"/>
<path d="M30.6845 56.9617H29.4536C28.9436 56.9617 28.5312 57.374 28.5312 57.8841C28.5312 58.3941 28.9436 58.8064 29.4536 58.8064H30.6845C31.1946 58.8064 31.6069 58.3941 31.6069 57.8841C31.6069 57.377 31.1946 56.9617 30.6845 56.9617Z" fill="white"/>
<path d="M37.1499 45.0929C36.6429 45.0471 36.1939 45.4197 36.1481 45.9298L36.0351 47.1545C35.9892 47.6615 36.3619 48.1105 36.8719 48.1563C36.8994 48.1594 36.93 48.1594 36.9574 48.1594C37.4309 48.1594 37.831 47.799 37.8768 47.3195L37.9898 46.0947C38.0325 45.5908 37.6569 45.1418 37.1499 45.0929Z" fill="white"/>
<path d="M41.1573 34.3237C40.6503 34.2901 40.2075 34.6719 40.1739 35.1789L40.0884 36.4067C40.0517 36.9168 40.4365 37.3566 40.9435 37.3902C40.9649 37.3902 40.9863 37.3932 41.0077 37.3932C41.4872 37.3932 41.8934 37.0206 41.927 36.535L42.0125 35.3072C42.0492 34.8002 41.6643 34.3604 41.1573 34.3237Z" fill="white"/>
<path d="M34.997 56.9617H33.7661C33.2561 56.9617 32.8438 57.374 32.8438 57.8841C32.8438 58.3941 33.2561 58.8064 33.7661 58.8064H34.997C35.5071 58.8064 35.9194 58.3941 35.9194 57.8841C35.9194 57.377 35.5071 56.9617 34.997 56.9617Z" fill="white"/>
<path d="M36.3764 53.6723C35.8694 53.6265 35.4204 53.9991 35.3746 54.5091L35.2616 55.7339C35.2158 56.2409 35.5884 56.6899 36.0985 56.7357C36.126 56.7387 36.1565 56.7387 36.184 56.7387C36.6574 56.7387 37.0575 56.3783 37.1033 55.8988L37.2163 54.6741C37.256 54.1671 36.8834 53.7181 36.3764 53.6723Z" fill="white"/>
<path d="M36.7592 49.3842C36.2522 49.3384 35.8033 49.711 35.7574 50.221L35.6444 51.4458C35.5986 51.9528 35.9712 52.4018 36.4813 52.4476C36.5088 52.4506 36.5393 52.4506 36.5668 52.4506C37.0372 52.4506 37.4403 52.0902 37.4831 51.6107L37.5961 50.386C37.6419 49.879 37.2693 49.43 36.7592 49.3842Z" fill="white"/>
</svg>
