<svg width="64" height="64" viewBox="0 0 64 64" fill="none" xmlns="http://www.w3.org/2000/svg">
<path d="M41.0836 38.298H41.0434C40.9177 36.4547 40.3425 35.0314 39.3286 34.0576C38.542 33.3032 37.6565 32.9955 37.0278 32.8698V30.2613C37.0278 29.8172 36.6693 29.4587 36.2252 29.4587H30.9173C30.7381 29.4614 26.5138 29.5765 23.6271 32.2919C21.4895 34.3037 21.1926 36.9229 21.2059 38.2953H20.826C20.3819 38.2953 20.0234 38.6538 20.0234 39.0979V44.775C20.0234 45.2191 20.3819 45.5776 20.826 45.5776H21.222C21.2166 45.615 21.2113 45.6498 21.2113 45.6872C21.2113 50.8212 25.5721 55 30.9307 55C36.2894 55 40.6502 50.8239 40.6502 45.6872C40.6502 45.6498 40.6448 45.6123 40.6395 45.5776H41.0809C41.525 45.5776 41.8835 45.2191 41.8835 44.775V39.0979C41.8862 38.6592 41.5277 38.298 41.0836 38.298ZM40.281 39.9032V43.975H39.4195V39.9032H40.281ZM36.7736 45.4919H25.6416C25.0691 45.4919 24.6009 45.0264 24.6009 44.4512V39.3976C24.6009 38.825 25.0691 38.3569 25.6416 38.3569H36.7736C37.3461 38.3569 37.8143 38.8224 37.8143 39.3976V44.4512C37.8143 45.0264 37.3461 45.4919 36.7736 45.4919ZM24.7267 33.4637C27.1558 31.179 30.912 31.0666 30.9334 31.0666H35.4226V33.5921C35.4226 33.8115 35.5109 34.0202 35.6687 34.1727C35.8266 34.3252 36.0352 34.4054 36.2573 34.3947C36.268 34.3947 37.3354 34.3733 38.2156 35.2187C38.9139 35.8875 39.3179 36.9256 39.4275 38.3007H39.1761C38.7587 37.3911 37.8384 36.7543 36.7736 36.7543H25.6416C24.5768 36.7543 23.6565 37.3884 23.2392 38.3007H22.8111C22.7977 37.2198 23.0171 35.0716 24.7267 33.4637ZM22.4901 39.9032V43.975H21.6286V39.9032H22.4901ZM30.9307 53.4002C26.4549 53.4002 22.8165 49.9437 22.8165 45.6926C22.8165 45.6551 22.8111 45.6177 22.8058 45.5829H23.2526C23.6779 46.4765 24.5875 47.0998 25.6416 47.0998H36.7736C37.7394 47.0998 38.5821 46.5781 39.045 45.805C38.9834 50.0025 35.3691 53.4002 30.9307 53.4002Z" fill="white"/>
<path d="M35.2699 41.1393H26.7088C26.2647 41.1393 25.9062 41.4978 25.9062 41.9419C25.9062 42.386 26.2647 42.7445 26.7088 42.7445H35.2699C35.714 42.7445 36.0725 42.386 36.0725 41.9419C36.0725 41.4978 35.714 41.1393 35.2699 41.1393Z" fill="white"/>
<path d="M43.1443 8H34.701C34.2569 8 33.8984 8.35849 33.8984 8.8026V17.0239C33.8984 17.468 34.2569 17.8265 34.701 17.8265H43.1443C43.5885 17.8265 43.9469 17.468 43.9469 17.0239V8.8026C43.9469 8.35849 43.5885 8 43.1443 8ZM42.3418 16.2213H35.5036V9.60519H42.3418V16.2213Z" fill="white"/>
<path d="M53.8414 23.5463V18.712C53.8414 18.2679 53.4829 17.9094 53.0388 17.9094H48.076C47.6319 17.9094 47.2734 18.2679 47.2734 18.712V23.5437C47.2734 23.9878 47.6319 24.3462 48.076 24.3462H53.0388C53.4802 24.3489 53.8414 23.9878 53.8414 23.5463ZM52.2362 22.7437H48.8786V19.5146H52.2362V22.7437Z" fill="white"/>
<path d="M62.547 30.1196H50.4198C49.9757 30.1196 49.6172 30.4781 49.6172 30.9222V42.6936C49.6172 43.1377 49.9757 43.4962 50.4198 43.4962H62.547C62.9911 43.4962 63.3496 43.1377 63.3496 42.6936V30.9222C63.3496 30.4781 62.9911 30.1196 62.547 30.1196ZM61.7444 31.7248V32.9581H51.2224V31.7248H61.7444ZM51.2224 41.891V34.5633H61.7444V41.891H51.2224Z" fill="white"/>
<path d="M13.6544 31.7113H1.20885C0.764743 31.7113 0.40625 32.0698 0.40625 32.5139V42.4634C0.40625 42.9075 0.764743 43.266 1.20885 43.266H13.6544C14.0985 43.266 14.457 42.9075 14.457 42.4634V32.5139C14.457 32.0725 14.0985 31.7113 13.6544 31.7113ZM2.01144 33.3165H12.8518V40.2242L10.9176 37.2679C10.7678 37.0379 10.5083 36.9095 10.2354 36.9041C9.9625 36.9068 9.70834 37.0512 9.56388 37.284L7.7286 40.2376L6.81632 38.6859C6.68523 38.4638 6.45515 38.3167 6.19565 38.2926C5.93614 38.2685 5.68466 38.3729 5.51611 38.5682L2.8622 41.6581H2.01144V33.3165ZM11.8727 41.6608H8.73453L10.2648 39.1995L11.8727 41.6608ZM6.70128 41.6608H4.9757L6.00035 40.4676L6.70128 41.6608Z" fill="white"/>
<path d="M4.5118 36.9738C5.13515 36.9738 5.64078 36.4682 5.64078 35.8448C5.64078 35.2215 5.13515 34.7158 4.5118 34.7158C3.88845 34.7158 3.38281 35.2215 3.38281 35.8448C3.38281 36.4682 3.88845 36.9738 4.5118 36.9738ZM4.5118 35.3686C4.77398 35.3686 4.98801 35.5826 4.98801 35.8448C4.98801 36.107 4.77398 36.321 4.5118 36.321C4.24962 36.321 4.03559 36.107 4.03559 35.8448C4.03559 35.5826 4.24694 35.3686 4.5118 35.3686Z" fill="white"/>
<path d="M25.7367 16.9303C25.7367 14.4823 24.6586 12.2805 22.9544 10.7717C22.8768 10.6593 22.7698 10.571 22.6467 10.5122C21.2368 9.38853 19.4551 8.71167 17.5155 8.71167C12.9835 8.71167 9.29688 12.3983 9.29688 16.9303C9.29688 21.4623 12.9835 25.1488 17.5155 25.1488C22.0475 25.1488 25.7367 21.4649 25.7367 16.9303ZM23.3343 13.7894H18.8558C18.3742 13.7894 17.981 13.3962 17.981 12.9146C17.981 12.433 18.3742 12.0398 18.8558 12.0398H21.9618C22.513 12.5374 22.9785 13.1313 23.3343 13.7894ZM14.3131 22.1685H13.4838C12.8577 21.6843 12.32 21.0931 11.9 20.4189H14.3131C14.7947 20.4189 15.1879 20.8121 15.1879 21.2937C15.1879 21.7753 14.7947 22.1685 14.3131 22.1685ZM17.5155 23.5463C16.9055 23.5463 16.3169 23.4607 15.7551 23.3055C16.3811 22.8561 16.7931 22.1204 16.7931 21.291C16.7931 19.9239 15.6802 18.811 14.3131 18.811H11.1776C11.0011 18.2144 10.9047 17.583 10.9047 16.9303C10.9047 13.2838 13.8717 10.3169 17.5181 10.3169C17.9462 10.3169 18.3635 10.3597 18.7702 10.4373C17.4432 10.4854 16.3785 11.5743 16.3785 12.9119C16.3785 14.279 17.4914 15.3919 18.8585 15.3919H23.9496C24.0673 15.8869 24.1315 16.4005 24.1315 16.9303C24.1315 20.5794 21.1646 23.5463 17.5155 23.5463Z" fill="white"/>
</svg>
