<svg width="64" height="64" viewBox="0 0 64 64" fill="none" xmlns="http://www.w3.org/2000/svg">
<path d="M62.3777 4.00089L55.9786 0.417601C55.0029 -0.1392 53.8057 -0.1392 52.83 0.417601L46.4309 4.00987C45.4252 4.57266 44.7997 5.63537 44.7997 6.78789V9.59285H19.2003V6.78789C19.2033 5.63238 18.5837 4.56667 17.5751 4.00089L11.179 0.417601C10.2032 -0.1392 9.00604 -0.1392 8.03031 0.417601L1.63121 4.00987C0.622561 4.57266 1.07954e-05 5.63537 1.07954e-05 6.78789V14.5322C-0.00298223 15.6877 0.616575 16.7534 1.62523 17.3192L8.02432 20.9085C8.18894 20.9923 8.35655 21.0612 8.53314 21.1151V42.8782C8.35954 42.9321 8.19193 43.0009 8.03031 43.0848L1.63121 46.677C0.622561 47.2398 -0.00298223 48.3085 1.07954e-05 49.464V57.2084C-0.00298223 58.3639 0.616575 59.4296 1.62523 59.9954L8.02432 63.5846C9.00005 64.1385 10.1973 64.1385 11.173 63.5846L17.5721 59.9924C18.5807 59.4296 19.2033 58.3639 19.2003 57.2084V54.4034H44.7997V57.2084C44.7967 58.3639 45.4162 59.4296 46.4249 59.9954L52.824 63.5846C53.7997 64.1385 54.9969 64.1385 55.9726 63.5846L62.3717 59.9924C63.3804 59.4296 64.0029 58.3639 64 57.2084V49.464C64.0029 48.3085 63.3834 47.2428 62.3747 46.677L55.9756 43.0878C55.811 43.0039 55.6434 42.9351 55.4668 42.8812V21.118C55.6404 21.0642 55.808 20.9953 55.9697 20.9145L62.3688 17.3222C63.3774 16.7594 64.0029 15.6907 64 14.5352V6.78789C64.0059 5.63537 63.3834 4.56667 62.3777 4.00089ZM47.4665 5.85989L53.8835 2.26463C54.0421 2.17482 54.2187 2.12692 54.4013 2.12692C54.5899 2.12692 54.7724 2.17781 54.9341 2.27061L61.3332 5.86587C61.3631 5.88384 61.39 5.90479 61.414 5.92575L55.3142 9.34738C55.0358 9.50604 54.7216 9.59285 54.3983 9.59285C54.0751 9.59285 53.7578 9.50604 53.4795 9.34439L47.3857 5.93173C47.4126 5.90778 47.4395 5.88084 47.4665 5.85989ZM2.6668 5.85989L9.08386 2.26463C9.24249 2.17482 9.41907 2.12692 9.60165 2.12692C9.79021 2.12692 9.97278 2.17781 10.1344 2.27061L16.5335 5.86587C16.5634 5.88384 16.5904 5.90479 16.6143 5.92575L10.5145 9.35037C10.2362 9.51203 9.9219 9.59585 9.59866 9.59585C9.27541 9.59285 8.95815 9.50903 8.6798 9.34738L2.58599 5.93173C2.61293 5.90479 2.63986 5.88084 2.6668 5.85989ZM2.6668 15.4512C2.33457 15.2627 2.13105 14.9094 2.13404 14.5292V8.12302L7.62924 11.2064C7.91358 11.368 8.21887 11.4938 8.53613 11.5836V14.9304C8.53613 15.5201 9.01502 15.9961 9.60165 15.9961C10.1883 15.9961 10.6672 15.5171 10.6672 14.9304V11.5806C10.9814 11.4938 11.2837 11.368 11.5651 11.2064L17.0663 8.12002V14.5322C17.0693 14.9154 16.8657 15.2686 16.5335 15.4572L10.1194 19.0585C9.7962 19.2441 9.39812 19.2441 9.07488 19.0585L2.6668 15.4512ZM2.6668 48.536L9.08386 44.9408C9.24249 44.851 9.41907 44.8031 9.60165 44.8031C9.79021 44.8031 9.97278 44.854 10.1344 44.9468L16.5335 48.542C16.5634 48.56 16.5904 48.5809 16.6143 48.6019L10.5145 52.0235C10.2362 52.1852 9.9219 52.269 9.59866 52.269C9.27541 52.266 8.95815 52.1822 8.6798 52.0205L2.58599 48.6079C2.61293 48.5809 2.63986 48.557 2.6668 48.536ZM17.0663 57.2084C17.0693 57.5915 16.8657 57.9448 16.5335 58.1334L10.1194 61.7316C9.7962 61.9172 9.39812 61.9172 9.07488 61.7316L2.6668 58.1304C2.33457 57.9418 2.13105 57.5886 2.13404 57.2084V50.7962L7.62924 53.8795C7.91358 54.0412 8.21887 54.1669 8.53613 54.2567V57.6035C8.53613 58.1932 9.01502 58.6692 9.60165 58.6692C10.1883 58.6692 10.6672 58.1903 10.6672 57.6035V54.2567C10.9814 54.1699 11.2837 54.0442 11.5651 53.8825L17.0663 50.7962V57.2084ZM44.7997 49.464V52.269H19.2003V49.464C19.2033 48.3085 18.5837 47.2428 17.5751 46.677L11.176 43.0878C11.0114 43.0039 10.8438 42.9351 10.6672 42.8812V21.118C10.8408 21.0642 11.0084 20.9953 11.17 20.9145L17.5691 17.3222C18.5777 16.7594 19.2033 15.6907 19.2003 14.5352V11.7303H44.7997V14.5352C44.7967 15.6907 45.4162 16.7564 46.4249 17.3222L52.824 20.9115C52.9886 20.9953 53.1562 21.0642 53.3328 21.118V42.8812C53.1592 42.9351 52.9916 43.0039 52.83 43.0878L46.4309 46.68C45.4222 47.2428 44.7967 48.3085 44.7997 49.464ZM61.8689 57.2084C61.8719 57.5915 61.6684 57.9448 61.3362 58.1334L54.9221 61.7316C54.5989 61.9172 54.2008 61.9172 53.8775 61.7316L47.4695 58.1304C47.1372 57.9418 46.9337 57.5886 46.9367 57.2084V50.7962L52.4319 53.8795C52.7162 54.0412 53.0215 54.1669 53.3388 54.2567V57.6035C53.3388 58.1932 53.8177 58.6692 54.4043 58.6692C54.9909 58.6692 55.4698 58.1903 55.4698 57.6035V54.2567C55.7841 54.1699 56.0864 54.0442 56.3677 53.8825L61.8689 50.7962V57.2084ZM61.3362 48.542C61.3661 48.56 61.393 48.5809 61.417 48.6019L55.3142 52.0235C55.0358 52.1822 54.7216 52.266 54.4013 52.269C54.0781 52.269 53.7608 52.1822 53.4825 52.0205L47.3886 48.6079C47.4156 48.5839 47.4455 48.563 47.4754 48.542L53.8895 44.9438C54.0451 44.851 54.2217 44.8031 54.4043 44.8001C54.5929 44.8001 54.7754 44.851 54.9371 44.9438L61.3362 48.542ZM61.8689 14.5322C61.8719 14.9154 61.6684 15.2686 61.3362 15.4572L54.9221 19.0555C54.5989 19.2411 54.2008 19.2411 53.8775 19.0555L47.4695 15.4542C47.1372 15.2656 46.9337 14.9124 46.9367 14.5322V8.12002L52.4319 11.2034C52.7162 11.365 53.0215 11.4908 53.3388 11.5806V14.9274C53.3388 15.5171 53.8177 15.9931 54.4043 15.9931C54.9909 15.9931 55.4698 15.5141 55.4698 14.9274V11.5806C55.7841 11.4938 56.0864 11.368 56.3677 11.2064L61.8689 8.12002V14.5322Z" fill="white"/>
<path d="M40.3015 29.7366C39.221 28.6559 37.8323 27.9374 36.3268 27.677C36.0664 26.1712 35.3481 24.7822 34.2676 23.7016L29.7391 19.1723C28.3534 17.7743 26.4677 16.987 24.4983 16.99H24.4654C21.4454 16.99 18.7248 18.8071 17.5695 21.5971C16.4142 24.3871 17.0487 27.5962 19.1827 29.7336L23.7082 34.2598C24.7887 35.3405 26.1774 36.059 27.6829 36.3194C27.9433 37.8252 28.6616 39.2142 29.7421 40.2948L34.2676 44.8211C37.1828 47.7368 41.9118 47.7368 44.827 44.8211C47.7422 41.9054 47.7422 37.1756 44.827 34.2598L40.3015 29.7366ZM35.7761 34.2598L40.3015 38.7861C40.7056 39.2052 40.6996 39.8698 40.2896 40.2829C39.8795 40.696 39.2121 40.699 38.793 40.2948L34.2676 35.7686C33.9982 35.4992 33.8934 35.107 33.9922 34.7388C34.091 34.3706 34.3783 34.0832 34.7465 33.9844C35.1146 33.8856 35.5067 33.9904 35.7761 34.2598ZM28.2336 29.7336L23.7082 25.2073C23.3041 24.7882 23.3101 24.1236 23.7201 23.7105C24.1302 23.3004 24.7976 23.2944 25.2167 23.6986L29.7421 28.2248C30.0205 28.4912 30.1312 28.8894 30.0324 29.2636C29.9337 29.6378 29.6433 29.9282 29.2692 30.0269C28.8951 30.1257 28.5 30.012 28.2336 29.7336ZM43.3185 43.3123C41.2354 45.3959 37.8592 45.3959 35.7761 43.3123L31.2506 38.7861C29.1794 36.6966 29.1794 33.3318 31.2506 31.2423C32.4987 29.991 32.4987 27.9674 31.2506 26.7161L26.7251 22.1898C25.92 21.3696 24.7348 21.0463 23.6244 21.3396C22.514 21.633 21.646 22.5011 21.3527 23.6147C21.0593 24.7253 21.3826 25.9108 22.2027 26.7161L26.7281 31.2423C27.1292 31.6405 27.632 31.9219 28.1798 32.0596C27.8954 32.7152 27.7099 33.4097 27.626 34.1221C26.7162 33.8856 25.8871 33.4127 25.2196 32.7511L20.6912 28.2248C19.1707 26.7011 18.7158 24.414 19.5359 22.4233C20.356 20.4326 22.2895 19.1334 24.4415 19.1214H24.4893C25.8961 19.1214 27.2429 19.6812 28.2306 20.6811L32.7561 25.2073C34.8273 27.2968 34.8273 30.6616 32.7561 32.7511C31.508 34.0024 31.508 36.026 32.7561 37.2773L37.2816 41.8036C38.0867 42.6238 39.2719 42.9471 40.3823 42.6538C41.4928 42.3604 42.3607 41.4923 42.654 40.3787C42.9474 39.2681 42.6241 38.0826 41.804 37.2773L37.2786 32.7541C36.8775 32.3559 36.3747 32.0745 35.8269 31.9368C36.1113 31.2812 36.2969 30.5867 36.3807 29.8743C37.2905 30.1108 38.1196 30.5837 38.7871 31.2453L43.3125 35.7716C45.3987 37.8551 45.3987 41.2318 43.3185 43.3123Z" fill="white"/>
</svg>
