<svg width="64" height="64" viewBox="0 0 64 64" fill="none" xmlns="http://www.w3.org/2000/svg">
<path d="M58.3607 14.2909L33.6016 0.404677C32.6345 -0.134892 31.4501 -0.134892 30.4796 0.404677L5.72391 14.2909C4.64477 14.8305 4 15.9063 4 17.0906V46.9094C4 48.0937 4.64477 49.1695 5.61531 49.7091L30.3744 63.5953C31.3416 64.1349 32.5259 64.1349 33.4964 63.5953L58.2555 49.7091C59.2227 49.1695 59.8708 48.0937 59.8708 46.9094V17.0906C59.976 15.9063 59.3313 14.8305 58.3607 14.2909ZM48.1361 10.9551L50.7185 12.3532L48.1361 14.0771V10.9551ZM39.5233 6.21777L44.4745 9.01742L39.5233 11.5999V6.21777ZM37.3718 12.7842L34.1412 14.5081L33.0655 13.9686C32.4207 13.6462 31.5587 13.6462 30.914 14.0771L23.2684 18.8111C22.6236 19.2421 22.3012 19.8868 22.3012 20.6402V24.1932L16.9191 21.1798V16.3372L24.5613 11.5999L25.6371 12.1395C26.2818 12.4618 27.0352 12.4618 27.6833 12.1395L37.3718 6.86593V12.7842ZM24.4527 20.7488L32.0949 16.0115L33.1707 16.551C33.8154 16.8734 34.5688 16.8734 35.2169 16.551L45.9812 10.5241V15.3667L40.4905 18.8111L39.4147 18.2715C38.77 17.9491 37.908 17.9491 37.2632 18.3801L29.621 23.1175C28.9763 23.5485 28.6539 24.1932 28.6539 24.9466V27.7462L24.3475 25.3776V20.7488H24.4527ZM32.5259 29.3615C32.2035 29.5753 31.7725 29.5753 31.4501 29.3615L30.9106 29.0392V25.0552L38.5528 20.3178L39.6285 20.8574C40.2733 21.1798 41.1352 21.1798 41.78 20.7488L52.5442 13.86V18.1663L32.5259 29.3615ZM54.5939 14.6133L56.7454 15.7977L54.5939 16.982V14.6133ZM31.4501 2.23378C31.7725 2.01999 32.2035 2.01999 32.5259 2.23378L36.8323 4.71105L26.6042 10.307L25.5285 9.76739C24.8837 9.445 24.0217 9.445 23.377 9.87598L15.7348 14.6133C15.09 15.0443 14.7676 15.6891 14.7676 16.4424V19.9954L7.23063 15.7977L31.4501 2.23378ZM6.69106 47.768C6.36867 47.5542 6.15149 47.2284 6.15149 46.8008V23.9794L9.81309 25.8085C10.1355 26.0223 10.4579 26.3481 10.4579 26.7757V27.7428C8.73395 28.3876 7.87539 30.2201 8.52016 31.832C9.16493 33.5559 10.9974 34.4145 12.6093 33.7697C14.2213 33.125 15.1918 31.2925 14.547 29.6805C14.2247 28.7134 13.4713 28.0652 12.6093 27.7428V26.7757C12.6093 25.5913 11.9646 24.407 10.7802 23.8708L6.15149 21.6108V17.6268L30.371 31.1906C30.4796 31.2992 30.6934 31.2992 30.9106 31.4044V43.0306L21.7617 38.0795C21.4393 37.8657 21.2221 37.5399 21.2221 37.1123V34.9608C22.946 34.3161 23.8046 32.4836 23.1598 30.8717C22.515 29.2563 20.6825 28.2892 19.0706 28.934C17.3467 29.5787 16.4881 31.4112 17.1329 33.0231C17.4553 33.9903 18.2086 34.6385 19.0706 34.9608V37.1123C19.0706 38.2967 19.7154 39.3724 20.7945 39.912L30.914 45.4027V55.8445L21.7651 50.8934C21.4427 50.6796 21.2255 50.3538 21.2255 49.9262V45.9423C21.2255 44.7579 20.5807 43.7908 19.6102 43.1426L15.8434 40.9911C15.8434 40.8825 15.8434 40.6687 15.8434 40.5601C15.8434 38.731 14.4452 37.3295 12.6127 37.3295C10.7802 37.3295 9.38211 38.7276 9.38211 40.5601C9.38211 42.3926 10.7802 43.7908 12.6127 43.7908C13.4747 43.7908 14.2281 43.4684 14.8728 42.9288L18.6396 45.1889C18.962 45.4027 19.1792 45.7285 19.1792 46.156V50.14C19.1792 51.3244 19.824 52.4001 20.9031 52.9397L31.0226 58.4304V61.3352L6.69106 47.768ZM12.6127 30.8683C12.6127 31.513 12.1818 31.944 11.537 31.944C10.8922 31.944 10.4613 31.513 10.4613 30.8683C10.4613 30.2235 10.8922 29.7925 11.537 29.7925C12.1818 29.7925 12.6127 30.2235 12.6127 30.8683ZM19.0706 31.944C19.0706 31.2992 19.5016 30.8683 20.1463 30.8683C20.7911 30.8683 21.2221 31.2992 21.2221 31.944C21.2221 32.5888 20.7911 33.0198 20.1463 33.0198C19.5016 33.0198 19.0706 32.5922 19.0706 31.944ZM13.6885 40.5567C13.6885 41.2015 13.2575 41.6325 12.6127 41.6325C11.968 41.6325 11.537 41.2015 11.537 40.5567C11.537 39.912 11.968 39.481 12.6127 39.481C13.2575 39.481 13.6885 39.912 13.6885 40.5567ZM57.285 47.768L33.0655 61.3318V51.9657L43.1849 46.475C44.2607 45.9355 44.9088 44.8597 44.9088 43.6754V39.8C44.9088 39.369 45.1226 39.0466 45.5536 38.8328L50.2909 36.4642C51.5839 37.6485 53.6268 37.6485 54.8111 36.3556C55.9954 35.0626 55.9954 33.0197 54.7025 31.8354C53.4096 30.6511 51.3667 30.6511 50.1823 31.944C49.5376 32.4836 49.2152 33.2369 49.2152 34.0955V34.5265L44.4778 36.8951C43.4021 37.4347 42.6487 38.5105 42.6487 39.8V43.6754C42.6487 44.1064 42.435 44.4287 42.1092 44.6425L33.0655 49.4851V39.0432L36.1875 37.4279C37.4804 38.6123 39.5233 38.6123 40.7077 37.3193C41.892 36.0264 41.892 33.9835 40.5991 32.7992C39.3061 31.6148 37.2632 31.6148 36.0789 32.9078C35.5393 33.5525 35.2169 34.3059 35.2169 35.1678V35.5988L33.0655 36.6746V31.4078C33.2792 31.4078 33.3878 31.2992 33.605 31.194L57.8245 17.6302V38.8362L52.551 41.5273C51.2581 40.343 49.2152 40.343 48.0309 41.6359C46.8465 42.9288 46.8465 44.9717 48.1395 46.156C49.4324 47.3404 51.4753 47.3404 52.6596 46.0475C53.1992 45.4027 53.5216 44.6493 53.5216 43.7874C53.5216 43.6788 53.5216 43.5736 53.5216 43.3564L57.8279 41.2049V46.8008C57.8245 47.2318 57.6074 47.5542 57.285 47.768ZM51.3633 34.0989C51.3633 33.4541 51.7943 33.0231 52.439 33.0231C53.0838 33.0231 53.5148 33.4541 53.5148 34.0989C53.5148 34.7437 53.0838 35.1746 52.439 35.1746C51.7943 35.1746 51.3633 34.7437 51.3633 34.0989ZM37.3718 35.1746C37.3718 34.5299 37.8028 34.0989 38.4476 34.0989C39.0923 34.0989 39.5233 34.5299 39.5233 35.1746C39.5233 35.8194 39.0923 36.2504 38.4476 36.2504C37.8028 36.2504 37.3718 35.8194 37.3718 35.1746ZM51.3633 43.7874C51.3633 44.4321 50.9323 44.8631 50.2875 44.8631C49.6428 44.8631 49.2118 44.4321 49.2118 43.7874C49.2118 43.1426 49.6428 42.7116 50.2875 42.7116C50.9323 42.7116 51.3633 43.1392 51.3633 43.7874Z" fill="white"/>
</svg>
