<svg width="65" height="64" viewBox="0 0 65 64" fill="none" xmlns="http://www.w3.org/2000/svg">
<path d="M37.57 17.5084H35.5017C34.9158 17.5084 34.344 17.3259 33.857 16.9853L32.7346 16.2007C32.071 15.7368 31.2051 15.7368 30.5416 16.2007L29.4192 16.9853C28.9321 17.3259 28.3604 17.5084 27.7745 17.5084H25.7109C24.6191 17.5084 23.7344 16.5807 23.7344 15.4358V11.2905C23.7344 10.1456 24.6191 9.2179 25.7109 9.2179H37.57C38.6618 9.2179 39.5465 10.1456 39.5465 11.2905V15.4358C39.5465 16.5807 38.6618 17.5084 37.57 17.5084Z" stroke="white" stroke-width="2" stroke-miterlimit="10" stroke-linecap="round" stroke-linejoin="round"/>
<path d="M29.6562 9.21791V4.03632C29.6562 3.46388 30.0986 3 30.6445 3H32.621C33.1669 3 33.6093 3.46388 33.6093 4.03632V9.21791" stroke="white" stroke-width="2" stroke-miterlimit="10" stroke-linecap="round" stroke-linejoin="round"/>
<path d="M29.6639 4.03638H27.6874C25.5038 4.03638 23.7344 5.89188 23.7344 8.18165V11.2906" stroke="white" stroke-width="2" stroke-miterlimit="10" stroke-linecap="round" stroke-linejoin="round"/>
<path d="M39.5389 11.2906V8.18165C39.5389 5.89188 37.7695 4.03638 35.5859 4.03638H33.6094" stroke="white" stroke-width="2" stroke-miterlimit="10" stroke-linecap="round" stroke-linejoin="round"/>
<path d="M38.493 17.3901C38.0624 20.9629 35.1541 23.7264 31.6293 23.7264C28.1022 23.7264 25.1915 20.9605 24.7656 17.3827" stroke="white" stroke-width="2" stroke-miterlimit="10" stroke-linecap="round" stroke-linejoin="round"/>
<path d="M27.683 22.6901V25.2932C27.683 26.2086 27.1112 27.0155 26.2735 27.2795L20.6169 29.0585C18.9439 29.584 17.8004 31.1977 17.8004 33.0286V42.3801L11.3767 33.9613C10.4379 32.7325 9.019 32.0169 7.51779 32.0169H1V33.0532C1 34.7706 2.32709 36.1622 3.96477 36.1622H6.92955L14.4403 46.6636C15.3109 47.8825 16.678 48.598 18.1298 48.598C20.6757 48.598 22.7417 46.4316 22.7417 43.7619V36.1622" stroke="white" stroke-width="2" stroke-miterlimit="10" stroke-linecap="round" stroke-linejoin="round"/>
<path d="M35.5859 22.6901V25.2932C35.5859 26.2086 36.1577 27.0155 36.9954 27.2795L42.652 29.0585C44.325 29.584 45.4685 31.1977 45.4685 33.0286V42.3801L51.8922 33.9613C52.831 32.7325 54.2499 32.0169 55.7511 32.0169H62.2712V33.0532C62.2712 34.7706 60.9442 36.1622 59.3065 36.1622H56.3417L48.8309 46.6636C47.9603 47.8825 46.5932 48.598 45.1414 48.598C42.5955 48.598 40.5296 46.4316 40.5296 43.7619V36.1622" stroke="white" stroke-width="2" stroke-miterlimit="10" stroke-linecap="round" stroke-linejoin="round"/>
<path d="M22.7422 43.4165V60.0001" stroke="white" stroke-width="2" stroke-miterlimit="10" stroke-linecap="round" stroke-linejoin="round"/>
<path d="M40.5312 43.4165V60.0001" stroke="white" stroke-width="2" stroke-miterlimit="10" stroke-linecap="round" stroke-linejoin="round"/>
<path d="M17.7969 38.2347L22.7382 40.3074" stroke="white" stroke-width="2" stroke-miterlimit="10" stroke-linecap="round" stroke-linejoin="round"/>
<path d="M45.4725 38.2347L40.5312 40.3074" stroke="white" stroke-width="2" stroke-miterlimit="10" stroke-linecap="round" stroke-linejoin="round"/>
<path d="M36.8594 29.7839L38.5559 28.0493" stroke="white" stroke-width="2" stroke-miterlimit="10" stroke-linecap="round" stroke-linejoin="round"/>
<path d="M24.7188 27.8716L29.5659 32.9545C30.7142 34.1586 32.5707 34.1709 33.7331 32.9816L33.9801 32.7299" stroke="white" stroke-width="2" stroke-miterlimit="10" stroke-linecap="round" stroke-linejoin="round"/>
<path d="M22.7422 55.8523C25.2481 56.5012 28.3141 56.8886 31.6365 56.8886C34.9589 56.8886 38.0249 56.5012 40.5308 55.8523" stroke="white" stroke-width="2" stroke-miterlimit="10" stroke-linecap="round" stroke-linejoin="round"/>
<path d="M31.6328 19.5812H31.643" stroke="white" stroke-width="2" stroke-miterlimit="10" stroke-linecap="round" stroke-linejoin="round"/>
<path d="M14.0427 22.69C13.0168 24.548 11.1015 25.799 8.90611 25.799C5.63074 25.799 2.97656 23.0157 2.97656 19.5811C2.97656 16.1464 5.63074 13.3632 8.90611 13.3632C11.1767 13.3632 13.1486 14.7005 14.1439 16.6646" stroke="white" stroke-width="2" stroke-miterlimit="10" stroke-linecap="round" stroke-linejoin="round"/>
<path d="M60.2968 27.8716C61.3884 27.8716 62.2733 26.9436 62.2733 25.799C62.2733 24.6543 61.3884 23.7263 60.2968 23.7263C59.2052 23.7263 58.3203 24.6543 58.3203 25.799C58.3203 26.9436 59.2052 27.8716 60.2968 27.8716Z" stroke="white" stroke-width="2" stroke-miterlimit="10" stroke-linecap="round" stroke-linejoin="round"/>
<path d="M56.3437 10.2543C57.4353 10.2543 58.3202 9.32633 58.3202 8.18164C58.3202 7.03696 57.4353 6.10901 56.3437 6.10901C55.2521 6.10901 54.3672 7.03696 54.3672 8.18164C54.3672 9.32633 55.2521 10.2543 56.3437 10.2543Z" stroke="white" stroke-width="2" stroke-miterlimit="10" stroke-linecap="round" stroke-linejoin="round"/>
<path d="M50.4179 22.6901C52.0553 22.6901 53.3827 21.2981 53.3827 19.5811C53.3827 17.8641 52.0553 16.4722 50.4179 16.4722C48.7805 16.4722 47.4531 17.8641 47.4531 19.5811C47.4531 21.2981 48.7805 22.6901 50.4179 22.6901Z" stroke="white" stroke-width="2" stroke-miterlimit="10" stroke-linecap="round" stroke-linejoin="round"/>
<path d="M58.5463 24.696L53.125 21.2836" stroke="white" stroke-width="2" stroke-miterlimit="10" stroke-linecap="round" stroke-linejoin="round"/>
<path d="M55.356 10.0815L52.0312 16.4722" stroke="white" stroke-width="2" stroke-miterlimit="10" stroke-linecap="round" stroke-linejoin="round"/>
<path d="M11.611 13.9455C13.6911 12.3861 15.3429 11.6755 15.8935 12.2528C16.797 13.2003 14.3993 17.2469 10.5404 21.2959C6.6815 25.345 2.82024 27.8568 1.91669 26.9093C1.36609 26.332 2.04375 24.5998 3.53084 22.4186" stroke="white" stroke-width="2" stroke-miterlimit="10" stroke-linecap="round" stroke-linejoin="round"/>
</svg>
