<svg width="64" height="64" viewBox="0 0 64 64" fill="none" xmlns="http://www.w3.org/2000/svg">
<path d="M54.9229 51.001H45.364C46.1084 49.969 46.2409 48.6211 45.7136 47.4651L45.0228 45.9311C42.5301 40.4129 40.17 35.1907 39.544 29.1932L44.6534 26.6385C46.52 25.6826 47.2588 23.393 46.3029 21.5235C45.4175 19.7921 43.3676 19.0111 41.5545 19.7104L39.936 20.3533C39.1521 20.6381 38.2751 20.4604 37.6632 19.8937C37.2854 19.5412 36.8737 19.231 36.4338 18.9631C38.9209 18.1059 40.9539 16.2759 42.0705 13.8933C43.5001 13.5182 44.4983 12.2296 44.5011 10.7521V8.75287C44.4983 7.27533 43.5001 5.98671 42.0705 5.61168C39.7921 0.741994 33.9976 -1.35871 29.1307 0.919638C26.4266 2.18288 24.4528 4.61913 23.776 7.52628C23.0457 7.63625 22.5043 8.26506 22.5015 9.00383V10.5039C22.5043 11.2427 23.0457 11.8687 23.776 11.9815C24.4189 14.7589 26.2518 17.1134 28.7867 18.4189C23.855 19.5948 20.6179 23.0095 20.4205 26.3734C20.2824 28.7166 22.4169 31.7309 23.0288 32.5402C23.2036 34.2546 23.4151 38.377 22.5776 39.9448C22.2224 40.6159 21.5569 41.0643 20.804 41.1404L17.2117 41.4985C15.142 41.5098 13.4699 43.196 13.4812 45.2685C13.4924 47.341 15.1787 49.0103 17.2512 48.999H23.652C24.2103 48.999 24.7601 48.8749 25.262 48.6381C27.2387 47.7217 30.4814 44.2788 31.77 42.8576L39.5045 51.001H9.07674C4.06606 51.0067 0.00563948 55.0671 0 60.0777V61.3269C0.00281974 62.8016 1.19839 63.9972 2.67311 64H61.3293C62.804 63.9972 63.9996 62.8016 64.0024 61.3269V60.0777C63.994 55.0671 59.9335 51.0067 54.9229 51.001ZM43.001 8.75005V10.7492C43.001 11.7164 42.2171 12.5003 41.25 12.5003H32.2493C31.2822 12.5003 30.4983 11.7164 30.4983 10.7492V8.75005C30.4983 7.78288 31.2822 6.99899 32.2493 6.99899H41.25C42.2171 6.99899 43.001 7.78288 43.001 8.75005ZM33.2504 1.5005C36.1462 1.49768 38.8334 3.0147 40.3223 5.50171H32.2522C30.941 5.50171 29.7567 6.29124 29.252 7.50091H25.3269C26.3194 3.94522 29.5593 1.49204 33.2504 1.5005ZM24.0016 9.00101H29.001V10.5011H24.0016V9.00101ZM25.3269 12.0012H29.252C29.7567 13.2109 30.941 14.0004 32.2522 14.0004H40.3223C37.9791 17.9029 32.9176 19.1662 29.0151 16.8258C27.2161 15.7458 25.8965 14.0201 25.3269 12.0012ZM32.771 41.7354L33.7805 40.6046C34.0568 40.2945 34.0314 39.8207 33.7213 39.5444C33.4111 39.2681 32.9374 39.2935 32.661 39.6036C30.6788 41.772 27.343 45.7901 24.6276 47.2761C24.3231 47.4199 23.9875 47.4961 23.6491 47.4989H17.2483C16.0048 47.4989 14.9982 46.4922 14.9982 45.2487C14.9982 44.0052 16.0048 42.9986 17.2483 42.9986C17.2737 42.9986 20.9507 42.632 20.9507 42.632C22.2054 42.5051 23.3108 41.7607 23.9001 40.6469C24.7629 39.0228 24.7488 35.8647 24.6332 33.8767C25.888 34.593 27.4502 34.4943 28.6006 33.623C29.8159 32.6558 30.4588 30.6369 28.9926 28.4882C28.7021 28.0455 28.4427 27.5831 28.2199 27.1065C28.0395 26.7343 27.594 26.5764 27.2189 26.7541C26.8495 26.9317 26.6916 27.3716 26.8608 27.7438C27.1174 28.2965 27.4163 28.8266 27.7519 29.3341C28.7444 30.7919 28.3243 31.9227 27.6645 32.45C26.8918 33.0647 25.5553 33.0872 24.3146 31.7563C23.5928 30.8286 21.8135 28.147 21.9122 26.4552C22.0927 23.3394 26.1362 19.1944 33.2109 19.4961C34.4939 19.5666 35.7063 20.0967 36.634 20.9877C37.6632 21.9408 39.1408 22.2369 40.4604 21.7519L42.1072 21.1005C43.2971 20.655 44.6224 21.2556 45.0679 22.4455C45.4767 23.5339 45.0087 24.7549 43.9795 25.2935L39.3015 27.631L39.2649 27.3349C39.2141 26.9233 38.8391 26.63 38.4274 26.6808C38.0157 26.7315 37.7225 27.1065 37.7732 27.5182C38.3823 34.3335 40.7678 40.4073 43.6496 46.5458L44.3404 48.0741C44.8056 49.1202 44.3319 50.3468 43.2858 50.8121C42.4596 51.1787 41.4896 50.9672 40.889 50.2904L32.771 41.7354ZM62.4995 60.0777V61.3269C62.4995 61.9726 61.975 62.4971 61.3265 62.4999H2.67311C2.02739 62.4999 1.50292 61.9754 1.5001 61.3269V60.0777C1.5001 59.8832 1.5142 59.6914 1.5283 59.4997H62.4713C62.4854 59.6914 62.4995 59.8832 62.4995 60.0777ZM1.79617 57.9996C2.72669 54.7484 5.69587 52.5039 9.07674 52.4983H54.92C58.3009 52.5039 61.2729 54.7456 62.2006 57.9996H1.79617Z" fill="white"/>
<path d="M49.89 35.7631C49.0158 36.6429 49.0158 38.064 49.89 38.9466L52.7689 41.8256C53.6515 42.6969 55.0698 42.6969 55.9496 41.8256L58.8285 38.9466C59.7055 38.0669 59.7055 36.6429 58.8285 35.7659L55.9496 32.887C55.067 32.0157 53.6487 32.0157 52.7689 32.887L49.89 35.7631ZM54.8894 33.9444L57.7683 36.8234C58.0616 37.1166 58.0616 37.5903 57.7683 37.8836L54.8894 40.7625C54.5933 41.0473 54.1252 41.0473 53.8291 40.7625L50.9502 37.8836C50.6598 37.5903 50.6598 37.1166 50.9502 36.8234L53.8291 33.9444C54.1224 33.654 54.5961 33.654 54.8894 33.9444Z" fill="white"/>
<path d="M6.5 29.7515V34.2518C6.5 35.4925 7.50665 36.4991 8.75015 36.5019H13.2505C14.4911 36.5019 15.4978 35.4953 15.5006 34.2518V29.7515C15.5006 28.5108 14.494 27.5042 13.2505 27.5013H8.75015C7.50947 27.5013 6.50282 28.508 6.5 29.7515ZM8.0001 29.7515C8.0001 29.337 8.33565 29.0014 8.75015 29.0014H13.2505C13.665 29.0014 14.0005 29.337 14.0005 29.7515V34.2518C14.0005 34.6663 13.665 35.0018 13.2505 35.0018H8.75015C8.33565 35.0018 8.0001 34.6663 8.0001 34.2518V29.7515Z" fill="white"/>
<path d="M55.8762 9.7511H61.6256C62.8691 9.7511 63.8758 8.74446 63.8758 7.50095C63.8758 7.11465 63.7743 6.73116 63.5853 6.39561L60.7092 1.30035C60.0973 0.217568 58.7241 -0.163097 57.6441 0.448786C57.2889 0.648988 56.9928 0.94506 56.7926 1.30035L53.9165 6.3928C53.3046 7.47557 53.688 8.84597 54.768 9.45785C55.1064 9.64677 55.487 9.74828 55.8762 9.7511ZM55.222 7.13157L58.0981 2.03912C58.3011 1.67819 58.7579 1.5513 59.1189 1.75433C59.2373 1.822 59.336 1.92069 59.4037 2.03912L62.2798 7.13157C62.4828 7.49249 62.3559 7.94929 61.995 8.15231C61.8822 8.21717 61.7553 8.24818 61.6256 8.24818H55.8762C55.4617 8.24818 55.1261 7.91263 55.1261 7.49813C55.1261 7.37124 55.16 7.24436 55.222 7.13157Z" fill="white"/>
<path d="M4.9994 0.000366211C2.23887 0.000366211 0 2.23924 0 4.99976C0 7.76029 2.23887 9.99916 4.9994 9.99916C7.75992 9.99916 9.99879 7.76029 9.99879 4.99976C9.99597 2.23924 7.75992 0.00318595 4.9994 0.000366211ZM4.9994 8.49906C3.06506 8.49906 1.5001 6.93128 1.5001 4.99976C1.5001 3.06824 3.06788 1.50047 4.9994 1.50047C6.93092 1.50047 8.49869 3.06824 8.49869 4.99976C8.49869 6.93128 6.93092 8.49624 4.9994 8.49906Z" fill="white"/>
</svg>
