<svg width="65" height="64" viewBox="0 0 65 64" fill="none" xmlns="http://www.w3.org/2000/svg">
<path d="M32.2678 17.0015C35.2395 17.0015 37.6607 14.5836 37.6607 11.6087C37.6607 8.63697 35.2428 6.21582 32.2678 6.21582C29.2929 6.21582 26.875 8.63697 26.875 11.6119C26.875 14.5836 29.2929 17.0015 32.2678 17.0015ZM32.2678 8.1508C34.1739 8.1508 35.7289 9.70266 35.7289 11.6119C35.7289 13.5211 34.1739 15.0697 32.2678 15.0697C30.3586 15.0697 28.8068 13.5179 28.8068 11.6087C28.8068 9.69944 30.3586 8.1508 32.2678 8.1508Z" fill="white"/>
<path d="M60.3989 36.4769C60.3989 25.0247 53.3318 14.5835 42.7522 10.295C42.1566 5.07281 37.7103 1 32.3303 1C26.9987 1 22.5846 4.99553 21.9246 10.1501C11.1421 14.3453 3.91406 24.8895 3.91406 36.4769C3.91406 41.9309 5.47235 47.2239 8.41829 51.7829C8.43439 51.8054 8.45371 51.8215 8.46981 51.8441V62.0341C8.46981 62.5686 8.90124 63 9.43569 63C9.97015 63 10.4016 62.5686 10.4016 62.0341V58.4507H30.8654C31.3999 58.4507 31.8313 58.0193 31.8313 57.4848C31.8313 56.9504 31.3999 56.5189 30.8654 56.5189H10.4016V52.7971H30.8654C31.3999 52.7971 31.8313 52.3656 31.8313 51.8312V40.0088H35.7206V57.4848C35.7206 58.0193 36.152 58.4507 36.6865 58.4507H54.2559V62.0341C54.2559 62.5686 54.6873 63 55.2217 63C55.7562 63 56.1876 62.5686 56.1876 62.0341V51.3128C58.9436 46.8633 60.3989 41.7409 60.3989 36.4769ZM32.3303 2.93177C37.0535 2.93177 40.8945 6.77276 40.8945 11.4959C40.8945 12.9222 40.5371 14.3324 39.861 15.5752C39.8578 15.5816 39.8578 15.588 39.8545 15.5913L32.3303 28.0576L24.5743 15.1244C24.0398 13.9879 23.7662 12.7677 23.7662 11.4959C23.7662 6.77276 27.6072 2.93177 32.3303 2.93177ZM5.84583 36.4769C5.84583 25.952 12.24 16.3543 21.8666 12.2558C21.9696 13.6531 22.3463 15.0278 22.9806 16.2674C23.0224 16.3511 23.0804 16.4219 23.1416 16.4863L31.4997 30.4272C31.6735 30.717 31.989 30.8973 32.3271 30.8973C32.6652 30.8973 32.9807 30.7202 33.1545 30.4304L41.6479 16.3575C41.6929 16.2835 41.7219 16.203 41.7445 16.1257C42.3143 14.9634 42.6653 13.7014 42.778 12.4071C52.2146 16.5829 58.4671 26.0872 58.4671 36.4801C58.4671 40.202 57.6847 43.8498 56.1876 47.2046V44.2071C56.1876 40.8298 53.4381 38.0802 50.0607 38.0802H14.5967C14.5001 38.0802 14.41 38.0899 14.3134 38.0931C14.2651 38.0867 14.22 38.0802 14.1717 38.0802C14.0784 38.0802 13.9914 38.0963 13.9077 38.1221C10.8555 38.4666 8.47303 41.0616 8.47303 44.2071V47.9387C6.74732 44.3842 5.84583 40.4788 5.84583 36.4769ZM42.823 40.012H50.0607C52.3724 40.012 54.2559 41.8922 54.2559 44.2071V51.7797H42.823V40.012ZM15.1376 40.012H25.5112V46.6218H15.1376V40.012ZM29.8995 50.8685H10.4016V44.2071C10.4016 42.3816 11.5735 40.8298 13.2059 40.2535V47.5877C13.2059 48.1222 13.6373 48.5536 14.1717 48.5536H26.4771C27.0115 48.5536 27.443 48.1222 27.443 47.5877V40.012H29.8995V50.8685ZM37.6523 56.5221V40.012H40.8913V52.7423C40.8913 53.2768 41.3227 53.7082 41.8571 53.7082H54.2559V56.5189H37.6523V56.5221Z" fill="white"/>
</svg>
