<svg width="210" height="69" viewBox="0 0 210 69" fill="none" xmlns="http://www.w3.org/2000/svg">
<path d="M35.8082 28.5568C35.6946 27.3068 35.1889 26.3352 34.2912 25.642C33.4048 24.9375 32.1378 24.5852 30.4901 24.5852C29.3991 24.5852 28.4901 24.7273 27.7628 25.0114C27.0355 25.2955 26.4901 25.6875 26.1264 26.1875C25.7628 26.6761 25.5753 27.2386 25.5639 27.875C25.5412 28.3977 25.6435 28.858 25.8707 29.2557C26.1094 29.6534 26.4503 30.0057 26.8935 30.3125C27.348 30.608 27.8935 30.8693 28.5298 31.0966C29.1662 31.3239 29.8821 31.5227 30.6776 31.6932L33.6776 32.375C35.4048 32.75 36.9276 33.25 38.2457 33.875C39.5753 34.5 40.6889 35.2443 41.5866 36.108C42.4957 36.9716 43.1832 37.9659 43.6491 39.0909C44.1151 40.2159 44.3537 41.4773 44.3651 42.875C44.3537 45.0795 43.7969 46.9716 42.6946 48.5511C41.5923 50.1307 40.0071 51.3409 37.9389 52.1818C35.8821 53.0227 33.3991 53.4432 30.4901 53.4432C27.5696 53.4432 25.0241 53.0057 22.8537 52.1307C20.6832 51.2557 18.9957 49.9261 17.7912 48.142C16.5866 46.358 15.9673 44.1023 15.9332 41.375H24.0128C24.081 42.5 24.3821 43.4375 24.9162 44.1875C25.4503 44.9375 26.1832 45.5057 27.1151 45.892C28.0582 46.2784 29.1491 46.4716 30.3878 46.4716C31.5241 46.4716 32.4901 46.3182 33.2855 46.0114C34.0923 45.7045 34.7116 45.2784 35.1435 44.733C35.5753 44.1875 35.7969 43.5625 35.8082 42.858C35.7969 42.1989 35.5923 41.6364 35.1946 41.1705C34.7969 40.6932 34.1832 40.2841 33.3537 39.9432C32.5355 39.5909 31.4901 39.267 30.2173 38.9716L26.5696 38.1193C23.5469 37.4261 21.1662 36.3068 19.4276 34.7614C17.6889 33.2045 16.8253 31.1023 16.8366 28.4545C16.8253 26.2955 17.4048 24.4034 18.5753 22.7784C19.7457 21.1534 21.3651 19.8864 23.4332 18.9773C25.5014 18.0682 27.8594 17.6136 30.5071 17.6136C33.2116 17.6136 35.5582 18.0739 37.5469 18.9943C39.5469 19.9034 41.098 21.1818 42.2003 22.8295C43.3026 24.4773 43.8651 26.3864 43.8878 28.5568H35.8082ZM60.8651 53.4943C58.1264 53.4943 55.7628 52.9545 53.7741 51.875C51.7969 50.7841 50.2741 49.233 49.206 47.2216C48.1491 45.1989 47.6207 42.7955 47.6207 40.0114C47.6207 37.3068 48.1548 34.9432 49.223 32.9205C50.2912 30.8864 51.7969 29.3068 53.7401 28.1818C55.6832 27.0455 57.973 26.4773 60.6094 26.4773C62.473 26.4773 64.1776 26.767 65.723 27.3466C67.2685 27.9261 68.6037 28.7841 69.7287 29.9205C70.8537 31.0568 71.7287 32.4602 72.3537 34.1307C72.9787 35.7898 73.2912 37.6932 73.2912 39.8409V41.9205H50.5355V37.0795H65.5355C65.5241 36.1932 65.3139 35.4034 64.9048 34.7102C64.4957 34.017 63.9332 33.4773 63.2173 33.0909C62.5128 32.6932 61.7003 32.4943 60.7798 32.4943C59.848 32.4943 59.0128 32.7045 58.2741 33.125C57.5355 33.5341 56.9503 34.0966 56.5185 34.8125C56.0866 35.517 55.8594 36.3182 55.8366 37.2159V42.142C55.8366 43.2102 56.0469 44.1477 56.4673 44.9545C56.8878 45.75 57.4844 46.3693 58.2571 46.8125C59.0298 47.2557 59.9503 47.4773 61.0185 47.4773C61.7571 47.4773 62.4276 47.375 63.0298 47.1705C63.6321 46.9659 64.1491 46.6648 64.581 46.267C65.0128 45.8693 65.3366 45.3807 65.5526 44.8011L73.206 45.0227C72.8878 46.7386 72.1889 48.233 71.1094 49.5057C70.0412 50.767 68.6378 51.75 66.8991 52.4545C65.1605 53.1477 63.1491 53.4943 60.8651 53.4943ZM77.5483 53V26.8182H85.6449V31.5909H85.9176C86.3949 29.8636 87.1733 28.5795 88.2528 27.7386C89.3324 26.8864 90.5881 26.4602 92.0199 26.4602C92.4063 26.4602 92.804 26.4886 93.2131 26.5455C93.6222 26.5909 94.0028 26.6648 94.3551 26.767V34.0114C93.9574 33.875 93.4347 33.767 92.7869 33.6875C92.1506 33.608 91.5824 33.5682 91.0824 33.5682C90.0938 33.5682 89.2017 33.7898 88.4062 34.233C87.6222 34.6648 87.0028 35.2727 86.5483 36.0568C86.1051 36.8295 85.8835 37.7386 85.8835 38.7841V53H77.5483ZM123.946 26.8182L114.963 53H105.418L96.4517 26.8182H105.23L110.054 44.8523H110.327L115.168 26.8182H123.946ZM127.142 53V26.8182H135.477V53H127.142ZM131.318 23.767C130.148 23.767 129.142 23.3807 128.301 22.608C127.46 21.8239 127.04 20.8807 127.04 19.7784C127.04 18.6875 127.46 17.7557 128.301 16.983C129.142 16.1989 130.148 15.8068 131.318 15.8068C132.5 15.8068 133.506 16.1989 134.335 16.983C135.176 17.7557 135.597 18.6875 135.597 19.7784C135.597 20.8807 135.176 21.8239 134.335 22.608C133.506 23.3807 132.5 23.767 131.318 23.767ZM153.004 53.4943C150.243 53.4943 147.874 52.9261 145.896 51.7898C143.93 50.6534 142.419 49.0739 141.362 47.0511C140.305 45.017 139.777 42.6648 139.777 39.9943C139.777 37.3125 140.305 34.9602 141.362 32.9375C142.43 30.9034 143.947 29.3182 145.913 28.1818C147.891 27.0455 150.249 26.4773 152.987 26.4773C155.408 26.4773 157.516 26.9148 159.311 27.7898C161.118 28.6648 162.527 29.9034 163.538 31.5057C164.561 33.0966 165.101 34.9659 165.158 37.1136H157.368C157.209 35.7727 156.754 34.7216 156.004 33.9602C155.266 33.1989 154.3 32.8182 153.107 32.8182C152.141 32.8182 151.294 33.0909 150.567 33.6364C149.839 34.1705 149.271 34.9659 148.862 36.0227C148.464 37.0682 148.266 38.3636 148.266 39.9091C148.266 41.4545 148.464 42.7614 148.862 43.8295C149.271 44.8864 149.839 45.6875 150.567 46.233C151.294 46.767 152.141 47.0341 153.107 47.0341C153.879 47.0341 154.561 46.8693 155.152 46.5398C155.754 46.2102 156.249 45.7273 156.635 45.0909C157.021 44.4432 157.266 43.6591 157.368 42.7386H165.158C165.078 44.8977 164.538 46.7841 163.538 48.3977C162.55 50.0114 161.158 51.267 159.362 52.1648C157.578 53.0511 155.459 53.4943 153.004 53.4943ZM181.662 53.4943C178.923 53.4943 176.56 52.9545 174.571 51.875C172.594 50.7841 171.071 49.233 170.003 47.2216C168.946 45.1989 168.418 42.7955 168.418 40.0114C168.418 37.3068 168.952 34.9432 170.02 32.9205C171.088 30.8864 172.594 29.3068 174.537 28.1818C176.48 27.0455 178.77 26.4773 181.406 26.4773C183.27 26.4773 184.974 26.767 186.52 27.3466C188.065 27.9261 189.401 28.7841 190.526 29.9205C191.651 31.0568 192.526 32.4602 193.151 34.1307C193.776 35.7898 194.088 37.6932 194.088 39.8409V41.9205H171.332V37.0795H186.332C186.321 36.1932 186.111 35.4034 185.702 34.7102C185.293 34.017 184.73 33.4773 184.014 33.0909C183.31 32.6932 182.497 32.4943 181.577 32.4943C180.645 32.4943 179.81 32.7045 179.071 33.125C178.332 33.5341 177.747 34.0966 177.315 34.8125C176.884 35.517 176.656 36.3182 176.634 37.2159V42.142C176.634 43.2102 176.844 44.1477 177.264 44.9545C177.685 45.75 178.281 46.3693 179.054 46.8125C179.827 47.2557 180.747 47.4773 181.815 47.4773C182.554 47.4773 183.224 47.375 183.827 47.1705C184.429 46.9659 184.946 46.6648 185.378 46.267C185.81 45.8693 186.134 45.3807 186.349 44.8011L194.003 45.0227C193.685 46.7386 192.986 48.233 191.906 49.5057C190.838 50.767 189.435 51.75 187.696 52.4545C185.957 53.1477 183.946 53.4943 181.662 53.4943Z" fill="url(#paint0_linear_163_314)"/>
<g filter="url(#filter0_f_163_314)">
<path d="M35.8082 28.5568C35.6946 27.3068 35.1889 26.3352 34.2912 25.642C33.4048 24.9375 32.1378 24.5852 30.4901 24.5852C29.3991 24.5852 28.4901 24.7273 27.7628 25.0114C27.0355 25.2955 26.4901 25.6875 26.1264 26.1875C25.7628 26.6761 25.5753 27.2386 25.5639 27.875C25.5412 28.3977 25.6435 28.858 25.8707 29.2557C26.1094 29.6534 26.4503 30.0057 26.8935 30.3125C27.348 30.608 27.8935 30.8693 28.5298 31.0966C29.1662 31.3239 29.8821 31.5227 30.6776 31.6932L33.6776 32.375C35.4048 32.75 36.9276 33.25 38.2457 33.875C39.5753 34.5 40.6889 35.2443 41.5866 36.108C42.4957 36.9716 43.1832 37.9659 43.6491 39.0909C44.1151 40.2159 44.3537 41.4773 44.3651 42.875C44.3537 45.0795 43.7969 46.9716 42.6946 48.5511C41.5923 50.1307 40.0071 51.3409 37.9389 52.1818C35.8821 53.0227 33.3991 53.4432 30.4901 53.4432C27.5696 53.4432 25.0241 53.0057 22.8537 52.1307C20.6832 51.2557 18.9957 49.9261 17.7912 48.142C16.5866 46.358 15.9673 44.1023 15.9332 41.375H24.0128C24.081 42.5 24.3821 43.4375 24.9162 44.1875C25.4503 44.9375 26.1832 45.5057 27.1151 45.892C28.0582 46.2784 29.1491 46.4716 30.3878 46.4716C31.5241 46.4716 32.4901 46.3182 33.2855 46.0114C34.0923 45.7045 34.7116 45.2784 35.1435 44.733C35.5753 44.1875 35.7969 43.5625 35.8082 42.858C35.7969 42.1989 35.5923 41.6364 35.1946 41.1705C34.7969 40.6932 34.1832 40.2841 33.3537 39.9432C32.5355 39.5909 31.4901 39.267 30.2173 38.9716L26.5696 38.1193C23.5469 37.4261 21.1662 36.3068 19.4276 34.7614C17.6889 33.2045 16.8253 31.1023 16.8366 28.4545C16.8253 26.2955 17.4048 24.4034 18.5753 22.7784C19.7457 21.1534 21.3651 19.8864 23.4332 18.9773C25.5014 18.0682 27.8594 17.6136 30.5071 17.6136C33.2116 17.6136 35.5582 18.0739 37.5469 18.9943C39.5469 19.9034 41.098 21.1818 42.2003 22.8295C43.3026 24.4773 43.8651 26.3864 43.8878 28.5568H35.8082ZM60.8651 53.4943C58.1264 53.4943 55.7628 52.9545 53.7741 51.875C51.7969 50.7841 50.2741 49.233 49.206 47.2216C48.1491 45.1989 47.6207 42.7955 47.6207 40.0114C47.6207 37.3068 48.1548 34.9432 49.223 32.9205C50.2912 30.8864 51.7969 29.3068 53.7401 28.1818C55.6832 27.0455 57.973 26.4773 60.6094 26.4773C62.473 26.4773 64.1776 26.767 65.723 27.3466C67.2685 27.9261 68.6037 28.7841 69.7287 29.9205C70.8537 31.0568 71.7287 32.4602 72.3537 34.1307C72.9787 35.7898 73.2912 37.6932 73.2912 39.8409V41.9205H50.5355V37.0795H65.5355C65.5241 36.1932 65.3139 35.4034 64.9048 34.7102C64.4957 34.017 63.9332 33.4773 63.2173 33.0909C62.5128 32.6932 61.7003 32.4943 60.7798 32.4943C59.848 32.4943 59.0128 32.7045 58.2741 33.125C57.5355 33.5341 56.9503 34.0966 56.5185 34.8125C56.0866 35.517 55.8594 36.3182 55.8366 37.2159V42.142C55.8366 43.2102 56.0469 44.1477 56.4673 44.9545C56.8878 45.75 57.4844 46.3693 58.2571 46.8125C59.0298 47.2557 59.9503 47.4773 61.0185 47.4773C61.7571 47.4773 62.4276 47.375 63.0298 47.1705C63.6321 46.9659 64.1491 46.6648 64.581 46.267C65.0128 45.8693 65.3366 45.3807 65.5526 44.8011L73.206 45.0227C72.8878 46.7386 72.1889 48.233 71.1094 49.5057C70.0412 50.767 68.6378 51.75 66.8991 52.4545C65.1605 53.1477 63.1491 53.4943 60.8651 53.4943ZM77.5483 53V26.8182H85.6449V31.5909H85.9176C86.3949 29.8636 87.1733 28.5795 88.2528 27.7386C89.3324 26.8864 90.5881 26.4602 92.0199 26.4602C92.4063 26.4602 92.804 26.4886 93.2131 26.5455C93.6222 26.5909 94.0028 26.6648 94.3551 26.767V34.0114C93.9574 33.875 93.4347 33.767 92.7869 33.6875C92.1506 33.608 91.5824 33.5682 91.0824 33.5682C90.0938 33.5682 89.2017 33.7898 88.4062 34.233C87.6222 34.6648 87.0028 35.2727 86.5483 36.0568C86.1051 36.8295 85.8835 37.7386 85.8835 38.7841V53H77.5483ZM123.946 26.8182L114.963 53H105.418L96.4517 26.8182H105.23L110.054 44.8523H110.327L115.168 26.8182H123.946ZM127.142 53V26.8182H135.477V53H127.142ZM131.318 23.767C130.148 23.767 129.142 23.3807 128.301 22.608C127.46 21.8239 127.04 20.8807 127.04 19.7784C127.04 18.6875 127.46 17.7557 128.301 16.983C129.142 16.1989 130.148 15.8068 131.318 15.8068C132.5 15.8068 133.506 16.1989 134.335 16.983C135.176 17.7557 135.597 18.6875 135.597 19.7784C135.597 20.8807 135.176 21.8239 134.335 22.608C133.506 23.3807 132.5 23.767 131.318 23.767ZM153.004 53.4943C150.243 53.4943 147.874 52.9261 145.896 51.7898C143.93 50.6534 142.419 49.0739 141.362 47.0511C140.305 45.017 139.777 42.6648 139.777 39.9943C139.777 37.3125 140.305 34.9602 141.362 32.9375C142.43 30.9034 143.947 29.3182 145.913 28.1818C147.891 27.0455 150.249 26.4773 152.987 26.4773C155.408 26.4773 157.516 26.9148 159.311 27.7898C161.118 28.6648 162.527 29.9034 163.538 31.5057C164.561 33.0966 165.101 34.9659 165.158 37.1136H157.368C157.209 35.7727 156.754 34.7216 156.004 33.9602C155.266 33.1989 154.3 32.8182 153.107 32.8182C152.141 32.8182 151.294 33.0909 150.567 33.6364C149.839 34.1705 149.271 34.9659 148.862 36.0227C148.464 37.0682 148.266 38.3636 148.266 39.9091C148.266 41.4545 148.464 42.7614 148.862 43.8295C149.271 44.8864 149.839 45.6875 150.567 46.233C151.294 46.767 152.141 47.0341 153.107 47.0341C153.879 47.0341 154.561 46.8693 155.152 46.5398C155.754 46.2102 156.249 45.7273 156.635 45.0909C157.021 44.4432 157.266 43.6591 157.368 42.7386H165.158C165.078 44.8977 164.538 46.7841 163.538 48.3977C162.55 50.0114 161.158 51.267 159.362 52.1648C157.578 53.0511 155.459 53.4943 153.004 53.4943ZM181.662 53.4943C178.923 53.4943 176.56 52.9545 174.571 51.875C172.594 50.7841 171.071 49.233 170.003 47.2216C168.946 45.1989 168.418 42.7955 168.418 40.0114C168.418 37.3068 168.952 34.9432 170.02 32.9205C171.088 30.8864 172.594 29.3068 174.537 28.1818C176.48 27.0455 178.77 26.4773 181.406 26.4773C183.27 26.4773 184.974 26.767 186.52 27.3466C188.065 27.9261 189.401 28.7841 190.526 29.9205C191.651 31.0568 192.526 32.4602 193.151 34.1307C193.776 35.7898 194.088 37.6932 194.088 39.8409V41.9205H171.332V37.0795H186.332C186.321 36.1932 186.111 35.4034 185.702 34.7102C185.293 34.017 184.73 33.4773 184.014 33.0909C183.31 32.6932 182.497 32.4943 181.577 32.4943C180.645 32.4943 179.81 32.7045 179.071 33.125C178.332 33.5341 177.747 34.0966 177.315 34.8125C176.884 35.517 176.656 36.3182 176.634 37.2159V42.142C176.634 43.2102 176.844 44.1477 177.264 44.9545C177.685 45.75 178.281 46.3693 179.054 46.8125C179.827 47.2557 180.747 47.4773 181.815 47.4773C182.554 47.4773 183.224 47.375 183.827 47.1705C184.429 46.9659 184.946 46.6648 185.378 46.267C185.81 45.8693 186.134 45.3807 186.349 44.8011L194.003 45.0227C193.685 46.7386 192.986 48.233 191.906 49.5057C190.838 50.767 189.435 51.75 187.696 52.4545C185.957 53.1477 183.946 53.4943 181.662 53.4943Z" fill="url(#paint1_linear_163_314)"/>
</g>
<defs>
<filter id="filter0_f_163_314" x="0.933594" y="0.806763" width="208.156" height="67.6875" filterUnits="userSpaceOnUse" color-interpolation-filters="sRGB">
<feFlood flood-opacity="0" result="BackgroundImageFix"/>
<feBlend mode="normal" in="SourceGraphic" in2="BackgroundImageFix" result="shape"/>
<feGaussianBlur stdDeviation="7.5" result="effect1_foregroundBlur_163_314"/>
</filter>
<linearGradient id="paint0_linear_163_314" x1="24.0292" y1="36" x2="169.01" y2="36" gradientUnits="userSpaceOnUse">
<stop stop-color="#0F5CEB"/>
<stop offset="1" stop-color="#21ECCF"/>
</linearGradient>
<linearGradient id="paint1_linear_163_314" x1="24.0292" y1="36" x2="169.01" y2="36" gradientUnits="userSpaceOnUse">
<stop stop-color="#0F5CEB" stop-opacity="0"/>
<stop offset="1" stop-color="#21ECCF"/>
</linearGradient>
</defs>
</svg>
