<svg width="64" height="64" viewBox="0 0 64 64" fill="none" xmlns="http://www.w3.org/2000/svg">
<path d="M43.9377 49.0316C43.7652 48.3258 43.2558 47.7526 42.5765 47.4952L37.9779 45.7572C36.9457 45.3671 35.7755 45.8049 35.2554 46.7788L33.8783 49.35C33.7934 49.5092 33.6448 49.6154 33.4749 49.6552V46.3808C33.4749 45.9403 33.1194 45.5847 32.6789 45.5847C32.2384 45.5847 31.8828 45.9403 31.8828 46.3808V49.3951C31.8775 49.3872 31.8696 49.3819 31.8642 49.3739L30.2483 46.6328C29.7229 45.7413 28.6668 45.3379 27.6823 45.651L22.7999 47.2007C22.0834 47.4289 21.5368 47.9967 21.3404 48.7238L17.9386 61.2165C17.7555 61.8852 17.8935 62.5831 18.3128 63.135C18.732 63.687 19.3715 64.0001 20.0641 64.0001H23.5667C24.0072 64.0001 24.3628 63.6445 24.3628 63.204C24.3628 62.7635 24.0072 62.408 23.5667 62.408H20.0641C19.8704 62.408 19.6953 62.3204 19.5785 62.1665C19.4617 62.0126 19.4246 61.8189 19.475 61.6331L22.8768 49.1351C22.9325 48.9334 23.0838 48.7742 23.2828 48.7132L28.1653 47.1635C28.4386 47.076 28.7331 47.1901 28.879 47.4369L30.495 50.1779C30.8904 50.8466 31.6175 51.2632 32.3949 51.2632H33.3423C34.1569 51.2632 34.8999 50.8174 35.2846 50.101L36.6618 47.5297C36.8077 47.2591 37.1315 47.137 37.418 47.2458L42.0166 48.9839C42.205 49.0555 42.3456 49.2147 42.3934 49.4111L45.4025 61.6491C45.4476 61.8321 45.4078 62.0232 45.291 62.1745C45.222 62.262 45.0681 62.408 44.8081 62.408H31.9041C31.4636 62.408 31.108 62.7635 31.108 63.204C31.108 63.6445 31.4636 64.0001 31.9041 64.0001H44.8081C45.49 64.0001 46.1216 63.6923 46.5435 63.1562C46.9627 62.6202 47.1113 61.9303 46.9495 61.2696L43.9377 49.0316Z" fill="white"/>
<path d="M26.0997 33.0627C25.2745 36.5123 26.771 40.1158 28.6205 42.159C29.804 43.4672 31.1573 44.1863 32.431 44.1863C32.4708 44.1863 32.5106 44.181 32.5477 44.1756C32.5875 44.181 32.6247 44.1863 32.6645 44.1863C33.9382 44.1863 35.2915 43.4672 36.4749 42.159C38.3244 40.1158 39.821 36.5123 38.9958 33.0627C38.0776 29.2311 34.8138 27.9574 32.8741 27.7637C32.8078 27.7478 32.7388 27.7345 32.6671 27.7372C32.6273 27.7372 32.5875 27.7398 32.5477 27.7425C32.5079 27.7398 32.4681 27.7398 32.4283 27.7372C32.3593 27.7372 32.293 27.7478 32.2293 27.7637C30.2896 27.9547 27.0178 29.2258 26.0997 33.0627ZM32.5424 29.3372C33.2642 29.3956 36.5943 29.8626 37.4488 33.4342C38.136 36.3027 36.8146 39.4153 35.2941 41.0923C34.4291 42.0475 33.4685 42.5968 32.6645 42.5968C32.6247 42.5968 32.5849 42.6021 32.5477 42.6074C32.5079 42.6021 32.4708 42.5968 32.431 42.5968C31.6243 42.5968 30.6664 42.0475 29.8013 41.0923C28.2835 39.4153 26.9621 36.3053 27.6467 33.4342C28.5011 29.8626 31.7782 29.3956 32.5424 29.3372Z" fill="white"/>
<path d="M47.0791 22.2284L40.6311 26.7102C40.2702 26.9623 40.18 27.4558 40.4321 27.8167C40.586 28.0396 40.8354 28.159 41.0875 28.159C41.2441 28.159 41.4033 28.1139 41.5413 28.0157L47.9893 23.5339C48.3502 23.2819 48.4404 22.7883 48.1883 22.4274C47.9362 22.0666 47.4374 21.979 47.0791 22.2284Z" fill="white"/>
<path d="M33.0765 22.8838V18.6382C33.0765 18.1977 32.7209 17.8422 32.2804 17.8422C31.8399 17.8422 31.4844 18.1977 31.4844 18.6382V22.8838C31.4844 23.3243 31.8399 23.6799 32.2804 23.6799C32.7209 23.6799 33.0765 23.3217 33.0765 22.8838Z" fill="white"/>
<path d="M23.6284 28.1617C23.8778 28.1617 24.1219 28.0449 24.2785 27.8273C24.5332 27.4691 24.451 26.9729 24.0928 26.7182L17.8039 22.2364C17.4457 21.9817 16.9495 22.0639 16.6948 22.4221C16.44 22.7804 16.5223 23.2766 16.8805 23.5313L23.1693 28.0131C23.3073 28.1139 23.4692 28.1617 23.6284 28.1617Z" fill="white"/>
<path d="M9.24105 13.6974C5.79945 13.6974 3 16.0829 3 19.015C3 20.4877 3.68726 21.8543 4.91318 22.8493C4.83888 22.9449 4.76458 23.0404 4.70355 23.1147C4.12774 23.8418 3.81197 24.2424 3.93934 24.7466C4.00303 25.0013 4.17816 25.2083 4.41963 25.3145C4.53373 25.3649 4.64518 25.3888 4.76724 25.3888C5.1573 25.3888 5.62697 25.1261 6.52651 24.6192C6.82371 24.4521 7.24296 24.2159 7.47116 24.1098C8.04432 24.253 8.63871 24.3273 9.24371 24.3273C12.6853 24.3273 15.4848 21.9418 15.4848 19.0097C15.4848 16.0776 12.6827 13.6974 9.24105 13.6974ZM9.24105 22.7379C8.7077 22.7379 8.18496 22.6662 7.6861 22.523C7.60384 22.4991 7.52423 22.4885 7.44198 22.4885C7.25623 22.4885 7.05191 22.5522 6.75737 22.6901C6.76002 22.6318 6.75472 22.5707 6.7441 22.5097C6.7043 22.2735 6.56632 22.0639 6.36465 21.9365C5.23691 21.2227 4.59211 20.156 4.59211 19.015C4.59211 16.9612 6.67776 15.2895 9.24105 15.2895C11.8043 15.2895 13.89 16.9612 13.89 19.015C13.89 21.0688 11.8043 22.7379 9.24105 22.7379Z" fill="white"/>
<path d="M60.3383 12.6307C60.1207 12.4821 59.8474 12.4502 59.6006 12.5458L54.8721 14.3714C54.7155 14.4324 54.5855 14.5385 54.4979 14.6712H49.6632C49.2228 14.6712 48.8672 15.0268 48.8672 15.4673V19.5351C48.8672 19.9756 49.2228 20.3312 49.6632 20.3312H51.3403V23.1412C51.3403 23.5817 51.6958 23.9373 52.1363 23.9373C52.5768 23.9373 52.9324 23.5817 52.9324 23.1412V20.3338H54.551C54.6147 20.4108 54.6943 20.4771 54.7845 20.5249L59.5131 23.0616C59.6298 23.1253 59.7598 23.1571 59.8899 23.1571C60.0305 23.1571 60.1738 23.12 60.2985 23.043C60.54 22.8998 60.6859 22.6397 60.6859 22.3611V13.2887C60.6833 13.026 60.5559 12.7793 60.3383 12.6307ZM50.4593 16.266H54.3653V18.7417H50.4593V16.266ZM59.0912 21.029L55.9547 19.3467V15.661L59.0912 14.4483V21.029Z" fill="white"/>
<path d="M24.4762 8.14097C24.6567 8.9954 25.2272 9.54202 25.6624 9.84452C25.6146 11.0837 25.9463 12.0416 26.6521 12.705C27.5012 13.5011 28.6529 13.6045 29.3295 13.5833C30.1601 14.6686 31.6168 14.9313 31.6858 14.9419C31.7309 14.9499 31.776 14.9525 31.8212 14.9525C31.9008 14.9525 31.9804 14.9366 32.0547 14.9154C32.129 14.9393 32.2086 14.9525 32.2882 14.9525C32.3333 14.9525 32.3784 14.9499 32.4235 14.9419C32.4925 14.9313 33.9493 14.6713 34.7798 13.5833C35.4565 13.6045 36.6081 13.5011 37.4572 12.705C38.163 12.0443 38.4947 11.0837 38.447 9.84452C38.8821 9.54202 39.4526 8.99805 39.6331 8.14097C39.8401 7.15386 39.458 6.0898 38.4921 4.97002C38.5505 4.29869 38.5319 2.99581 37.6536 2.09893C37.022 1.45678 36.1225 1.18877 34.9656 1.29491C34.5357 0.764211 33.6786 0 32.2882 0C32.2059 0 32.129 0.0159211 32.0547 0.0398026C31.9804 0.0159211 31.9008 0 31.8185 0C30.4281 0 29.571 0.764211 29.1438 1.29757C27.9895 1.18877 27.0873 1.45943 26.4558 2.10158C25.5774 2.99581 25.5562 4.30134 25.6173 4.97268C24.654 6.0898 24.2693 7.15386 24.4762 8.14097ZM27.0342 5.77669C27.212 5.58829 27.2863 5.32825 27.2359 5.07616C27.1722 4.75244 27.1006 3.71757 27.5941 3.21605C27.9258 2.87906 28.5282 2.78353 29.3852 2.93478C29.7275 2.99581 30.0698 2.82068 30.2317 2.51553C30.2529 2.47838 30.7332 1.59211 31.8185 1.59211C31.9008 1.59211 31.9777 1.57618 32.052 1.5523C32.1263 1.57618 32.2033 1.59211 32.2855 1.59211C33.3708 1.59211 33.8537 2.47838 33.8697 2.51022C34.0262 2.82599 34.3738 3.00112 34.7214 2.93744C35.5732 2.78619 36.1756 2.87906 36.5073 3.2134C36.9982 3.70961 36.9318 4.72855 36.8681 5.07616C36.8177 5.32825 36.8947 5.58829 37.0698 5.77669C37.8181 6.57009 38.1737 7.28919 38.0702 7.80397C37.9561 8.37448 37.298 8.67167 37.298 8.67167C36.9716 8.80965 36.7753 9.14665 36.8177 9.49691C36.9292 10.4601 36.7779 11.1474 36.3666 11.5375C35.82 12.0549 34.8302 12.0204 34.4985 11.962C34.143 11.8957 33.7874 12.0788 33.6362 12.4078C33.3443 13.0287 32.4633 13.3127 32.1475 13.371C32.113 13.3763 32.0812 13.3896 32.0494 13.3976C32.0175 13.387 31.9883 13.3763 31.9538 13.371C31.6381 13.3153 30.7571 13.0287 30.4652 12.4078C30.314 12.0841 29.9557 11.901 29.6055 11.962C29.2711 12.0204 28.2814 12.0549 27.7348 11.5375C27.3235 11.1474 27.1722 10.4628 27.2837 9.49691C27.3261 9.14399 27.1298 8.80965 26.8034 8.67167C26.7981 8.66902 26.1506 8.37448 26.0312 7.81193C25.9277 7.29981 26.2833 6.5754 27.0342 5.77669Z" fill="white"/>
<path d="M32.1539 11.3172C34.2475 11.3172 35.9484 9.61363 35.9484 7.52267C35.9484 5.4317 34.2449 3.72815 32.1539 3.72815C30.0629 3.72815 28.3594 5.4317 28.3594 7.52267C28.3594 9.61363 30.0603 11.3172 32.1539 11.3172ZM32.1539 5.3176C33.3692 5.3176 34.3563 6.30471 34.3563 7.52001C34.3563 8.73532 33.3692 9.72243 32.1539 9.72243C30.9386 9.72243 29.9515 8.73532 29.9515 7.52001C29.9515 6.30471 30.9386 5.3176 32.1539 5.3176Z" fill="white"/>
</svg>
