<svg width="65" height="64" viewBox="0 0 65 64" fill="none" xmlns="http://www.w3.org/2000/svg">
<path d="M31.4567 30.1656C32.434 30.2564 34.5429 28.9887 33.4748 27.9811C33.1541 27.8117 32.7577 27.9055 32.5883 28.2262C32.1133 29.0219 30.8002 29.0219 30.3433 28.2262C29.9167 27.494 28.7851 28.1506 29.2117 28.8828C29.6716 29.6604 30.5248 30.1656 31.4567 30.1656Z" fill="white"/>
<path d="M32.4536 36.2321C32.2993 36.3864 31.9332 36.5377 31.4612 36.5377C30.6655 36.6133 30.375 35.9265 29.8576 36.0475C29.6428 36.0929 29.4764 36.2926 29.431 36.5074C29.08 38.0656 32.5626 38.111 33.3886 37.1337C33.9211 36.4923 33.0497 35.6209 32.4536 36.2321Z" fill="white"/>
<path d="M35.1412 33.0702C33.5678 33.391 32.7116 32.5952 32.0247 33.0702C31.9794 33.1005 31.934 33.1459 31.8886 33.1913C31.8432 33.2518 31.704 33.3274 31.5376 33.3607C31.3228 33.4061 31.111 33.3002 30.9416 33.1459C30.3152 32.5044 28.9688 33.4212 27.8403 32.9311C27.0294 32.7011 26.6633 33.9386 27.459 34.1837C28.285 34.4287 29.3228 34.3682 29.9945 34.2896C30.1458 34.2744 30.3001 34.3047 30.4211 34.3955C30.6965 34.58 31.0323 34.7162 31.4589 34.7162C31.8856 34.7162 32.2244 34.5619 32.4665 34.3955C32.5875 34.3047 32.7569 34.2744 32.9082 34.3047C33.5345 34.3955 34.5421 34.4893 35.3681 34.3501C36.2092 34.2321 35.9823 32.9008 35.1412 33.0702Z" fill="white"/>
<path d="M44.3972 48.1168C43.662 47.902 42.8996 47.6811 42.1613 47.4482C36.2704 45.5844 36.9178 41.3939 36.9511 41.2063C36.9693 41.1034 36.9663 41.0035 36.9511 40.9067C40.7604 38.5074 43.4532 34.5619 43.6015 34.3441C43.6076 34.335 43.6106 34.3259 43.6166 34.3169C45.1506 34.5135 46.1733 34.8706 47.0175 35.164C47.8072 35.4394 48.4607 35.6421 49.1203 35.6421C50.0976 35.6421 51.09 35.1943 52.5483 33.857C55.2533 31.3759 53.922 27.957 52.3789 24.0024C51.6709 22.187 50.8691 20.1296 50.3729 17.9511C50.2791 17.5427 50.1914 17.1403 50.1036 16.7469C48.73 10.5655 47.6438 5.68516 38.4034 2.12398C29.859 -1.16793 22.0165 3.34936 17.8956 8.2146C16.3071 10.0905 15.6112 13.6668 14.9365 17.1221C14.401 19.8694 13.8473 22.7075 12.9033 24.305C10.4676 28.4199 12.9154 33.385 13.7595 34.2806C14.0349 34.571 14.5432 35.1066 21.4961 34.7344C22.2132 35.869 24.1587 38.7222 26.7305 40.6828C26.6609 40.8432 26.6397 41.0247 26.673 41.2093C26.7063 41.3848 27.4234 45.5571 21.4628 47.4451C20.7246 47.6781 19.9621 47.902 19.2269 48.1138C13.0969 49.8989 6.75819 51.7446 7.92004 62.1922C7.97148 62.6551 8.36481 63 8.82169 63C8.85497 63 8.88825 62.997 8.92153 62.9939C9.42076 62.9395 9.77779 62.4887 9.72333 61.9925C8.73092 53.0607 13.5871 51.6478 19.7322 49.8566C20.4765 49.6387 21.248 49.4148 22.0075 49.1758C27.6654 47.3846 28.4581 43.5844 28.5035 41.8144C29.5443 42.3469 30.6548 42.6828 31.8015 42.6828C32.1494 42.6828 32.5004 42.6525 32.8544 42.586C33.629 42.4438 34.3854 42.1957 35.1115 41.878C35.1751 43.6752 36.0192 47.4028 41.6076 49.1728C42.367 49.4148 43.1386 49.6387 43.8829 49.8536C50.031 51.6447 54.8841 53.0577 53.8917 61.9894C53.8373 62.4887 54.1943 62.9365 54.6935 62.9909C54.7268 62.9939 54.7601 62.997 54.7934 62.997C55.2502 62.997 55.6436 62.6551 55.695 62.1891C56.8659 51.7476 50.5272 49.902 44.3972 48.1168ZM15.0001 32.9251C14.4917 32.1414 12.6401 28.317 14.4675 25.2308C15.5719 23.364 16.1286 20.5018 16.7186 17.4701C17.348 14.2417 17.9985 10.9014 19.2813 9.38855C20.1104 8.40824 27.6684 -0.0635674 37.7469 3.81531C46.0795 7.02552 46.9751 11.0466 48.3276 17.1372C48.4153 17.5336 48.5061 17.939 48.5999 18.3505C49.1263 20.6621 49.9523 22.7861 50.6845 24.659C52.2306 28.6286 53.0234 30.9523 51.3169 32.5166C49.562 34.1262 49.1869 33.9961 47.6105 33.4455C46.6574 33.1127 45.3745 32.6679 43.4048 32.4621C42.839 31.7783 41.0963 29.3064 39.8376 23.5849C39.6712 22.8255 39.5108 22.0811 39.3565 21.3489C37.9314 14.6834 36.7998 9.39158 33.3778 9.39158C33.3385 9.39158 33.2992 9.39158 33.2598 9.39461C32.3128 9.29173 25.2903 8.81368 22.7003 16.3596C22.428 17.1524 22.1769 17.9179 21.9409 18.6591C21.251 18.9163 20.7397 19.3187 20.9122 19.9813C21.0181 20.1841 21.2178 20.3051 21.4265 20.3232C21.2541 20.9011 21.0937 21.4609 20.9455 21.9964C20.4704 22.1054 20.1951 22.7982 20.6338 23.1613C19.7382 26.6166 19.4145 28.9917 19.6111 29.8419C19.7533 30.4652 20.2889 31.9084 20.6883 32.9553C18.2466 33.0642 15.7323 33.0763 15.0001 32.9251ZM32.5337 40.8069C27.8833 41.6601 23.2207 34.0899 22.8093 33.4001C22.4432 32.4712 21.5415 30.1324 21.3811 29.4395C21.3025 29.0613 21.4961 27.1461 22.3675 23.7362C22.7578 23.718 23.0241 23.5244 23.6413 23.3489C23.3599 23.6454 23.2056 24.0357 23.2056 24.4714C23.2056 25.3761 23.9378 26.1234 24.8425 26.1234C25.7472 26.1234 26.4794 25.3912 26.4794 24.4714C26.4794 24.1598 26.3856 23.8633 26.2464 23.6151C26.5278 23.7695 26.7123 23.8965 26.7123 23.8965C27.4143 24.4109 28.2221 23.3368 27.5232 22.8376C27.4597 22.7922 26.1677 21.8421 24.6428 21.8421C23.8985 21.8421 23.2238 22.0539 22.7729 22.2445C23.0029 21.4246 23.2631 20.5381 23.5626 19.582C25.2358 19.3187 27.0361 19.9148 28.21 20.5653C28.5217 20.7378 28.9725 20.7378 29.1601 20.4412C29.7834 19.4277 27.5081 18.5411 25.5293 18.2446C25.018 18.175 24.5066 18.172 23.9983 18.2295C24.1345 17.815 24.2767 17.3944 24.4249 16.9587C26.6851 10.3658 32.8272 11.1737 33.0995 11.213C33.163 11.2221 33.2235 11.2251 33.2871 11.2221C33.3113 11.2221 33.3325 11.2191 33.3567 11.2191C35.3354 11.2191 36.4307 16.3324 37.5865 21.7392C37.7438 22.4715 37.9042 23.2218 38.0706 23.9843C39.3474 29.8086 41.1447 32.5559 41.9495 33.5514C41.1295 34.6739 37.0994 39.9658 32.5337 40.8069Z" fill="white"/>
</svg>
