<svg width="64" height="64" viewBox="0 0 64 64" fill="none" xmlns="http://www.w3.org/2000/svg">
<path d="M25.0404 44.7375C24.7994 44.7375 24.5584 44.6559 24.364 44.4887L17.5803 38.7118C17.347 38.5136 17.2109 38.222 17.2109 37.9149C17.2109 37.6078 17.347 37.3162 17.5803 37.1179L24.3601 31.3449C24.7994 30.9678 25.4603 31.0223 25.8374 31.4616C26.2106 31.9009 26.1601 32.5656 25.7169 32.9388L19.8739 37.9149L25.7169 42.8909C26.1562 43.268 26.2106 43.9289 25.8374 44.3682C25.6313 44.6131 25.3359 44.7375 25.0404 44.7375Z" fill="white"/>
<path d="M38.4309 44.7375C38.1355 44.7375 37.84 44.6131 37.634 44.3682C37.2569 43.9289 37.3113 43.268 37.7506 42.8909L43.5936 37.9149L37.7506 32.9388C37.3113 32.5656 37.2569 31.9009 37.634 31.4616C38.0072 31.0223 38.672 30.9678 39.1113 31.3449L45.8911 37.1179C46.1244 37.3162 46.2604 37.6078 46.2604 37.9149C46.2604 38.222 46.1244 38.5136 45.8911 38.7118L39.1113 44.4848C38.913 44.6559 38.672 44.7375 38.4309 44.7375Z" fill="white"/>
<path d="M29.3307 49.0682C29.2569 49.0682 29.1869 49.0605 29.113 49.0449C28.5454 48.9244 28.1839 48.3685 28.3044 47.8048L32.5302 27.7412C32.6507 27.1736 33.2066 26.8121 33.7703 26.9326C34.3379 27.0531 34.6994 27.609 34.5789 28.1727L30.3531 48.2363C30.2521 48.73 29.8167 49.0682 29.3307 49.0682Z" fill="white"/>
<path d="M56.4354 60H7.03645C3.15668 60 0 56.8433 0 52.9636V11.0364C0 7.15668 3.15668 4 7.03645 4H56.4354C60.3152 4 63.4719 7.15668 63.4719 11.0364V52.9636C63.4719 56.8433 60.3152 60 56.4354 60ZM7.03645 6.09538C4.31128 6.09538 2.09538 8.31128 2.09538 11.0364V52.9636C2.09538 55.6887 4.31128 57.9046 7.03645 57.9046H56.4354C59.1606 57.9046 61.3765 55.6887 61.3765 52.9636V11.0364C61.3765 8.31128 59.1606 6.09538 56.4354 6.09538H7.03645V6.09538Z" fill="white"/>
<path d="M62.4222 20.7786H1.04964C0.470392 20.7786 0 20.3082 0 19.729C0 19.1497 0.470392 18.6793 1.04964 18.6793H62.4261C63.0053 18.6793 63.4757 19.1497 63.4757 19.729C63.4719 20.3121 63.0015 20.7786 62.4222 20.7786Z" fill="white"/>
<path d="M17.902 15.7637C16.0749 15.7637 14.5859 14.2748 14.5859 12.4477C14.5859 10.6205 16.0749 9.13159 17.902 9.13159C19.7292 9.13159 21.2181 10.6205 21.2181 12.4477C21.222 14.2787 19.733 15.7637 17.902 15.7637ZM17.902 11.227C17.2295 11.227 16.6813 11.7751 16.6813 12.4477C16.6813 13.1202 17.2295 13.6684 17.902 13.6684C18.5746 13.6684 19.1227 13.1202 19.1227 12.4477C19.1227 11.7751 18.5784 11.227 17.902 11.227Z" fill="white"/>
<path d="M7.72232 15.7326C5.89518 15.7326 4.40625 14.2437 4.40625 12.4165C4.40625 10.5894 5.89518 9.10046 7.72232 9.10046C9.54946 9.10046 11.0384 10.5894 11.0384 12.4165C11.0384 14.2437 9.54946 15.7326 7.72232 15.7326ZM7.72232 11.1958C7.04978 11.1958 6.50163 11.744 6.50163 12.4165C6.50163 13.0891 7.04978 13.6372 7.72232 13.6372C8.39487 13.6372 8.94301 13.0891 8.94301 12.4165C8.94301 11.744 8.39487 11.1958 7.72232 11.1958Z" fill="white"/>
<path d="M28.0895 15.7988C26.2624 15.7988 24.7734 14.3098 24.7734 12.4827C24.7734 10.6556 26.2624 9.16663 28.0895 9.16663C29.9167 9.16663 31.4056 10.6556 31.4056 12.4827C31.4056 14.3098 29.9205 15.7988 28.0895 15.7988ZM28.0895 11.262C27.417 11.262 26.8688 11.8102 26.8688 12.4827C26.8688 13.1552 27.417 13.7034 28.0895 13.7034C28.7621 13.7034 29.3102 13.1552 29.3102 12.4827C29.3102 11.8102 28.7621 11.262 28.0895 11.262Z" fill="white"/>
</svg>
