<svg width="21" height="26" viewBox="0 0 21 26" fill="none" xmlns="http://www.w3.org/2000/svg">
<path fill-rule="evenodd" clip-rule="evenodd" d="M1.15242 9.98042C0.864713 10.2624 0.700092 10.6465 0.694358 11.0493C0.67485 11.4837 0.841484 11.9057 1.15242 12.2097C1.74795 12.8017 2.70978 12.8017 3.30531 12.2097L9.33685 6.11724L9.33685 23.8293C9.33685 24.6726 10.0205 25.3562 10.8637 25.3562C11.707 25.3562 12.3906 24.6726 12.3906 23.8293L12.3906 6.10265L18.4213 12.1334C18.9929 12.6229 19.836 12.6229 20.4076 12.1334C21.0482 11.5848 21.1227 10.621 20.5742 9.98048L11.9474 1.33835L11.9386 1.3295C11.3398 0.73568 10.3731 0.739653 9.77926 1.33835L1.15242 9.98042Z" fill="white"/>
</svg>
